<svg id="Слой_1" data-name="Слой 1" xmlns="http://www.w3.org/2000/svg" viewBox="0 0 125.87 140.17"><defs><style>.cls-1{fill:#672c83;}.cls-2{fill:#f7b231;}.cls-3{fill:#3aa7df;}</style></defs><rect class="cls-1" x="52.98" width="19.91" height="48.54" rx="9.95"/><path class="cls-2" d="M125.87,85.63a62.8,62.8,0,0,1-22.28,48.05,28.69,28.69,0,0,1-28,4.81,39.21,39.21,0,0,0-25.32,0,28.71,28.71,0,0,1-28-4.81A62.95,62.95,0,0,1,33.76,29.85a16.58,16.58,0,0,1,10.65-1.6,103.25,103.25,0,0,0,18.53,1.62,103.05,103.05,0,0,0,18.52-1.62,16.58,16.58,0,0,1,10.65,1.6A62.93,62.93,0,0,1,125.87,85.63Z"/><path class="cls-3" d="M94.57,37.72c11.07-3.54,17.91-15.07,20.79-21A4.35,4.35,0,0,0,113.53,11c-5.82-3.19-18.07-8.6-29.14-5.06S66.47,21,63.59,26.94a4.35,4.35,0,0,0,1.83,5.72C71.24,35.85,83.49,41.26,94.57,37.72Z"/></svg>