<svg id="Слой_1" data-name="Слой 1" xmlns="http://www.w3.org/2000/svg" viewBox="0 0 141.48 215.57"><defs><style>.cls-1{fill:#f9ad1d;}.cls-2{fill:#fff;}</style></defs><rect class="cls-1" width="141.48" height="215.57"/><rect class="cls-2" x="18.18" y="18.25" width="19.55" height="19.55"/><rect class="cls-2" x="46" y="18.25" width="19.55" height="19.55"/><rect class="cls-2" x="74.92" y="18.25" width="19.55" height="19.55"/><rect class="cls-2" x="18.18" y="44.84" width="19.55" height="19.55"/><rect class="cls-2" x="46" y="44.84" width="19.55" height="19.55"/><rect class="cls-2" x="74.92" y="44.84" width="19.55" height="19.55"/><rect class="cls-2" x="18.18" y="71.42" width="19.55" height="19.55"/><rect class="cls-2" x="46" y="71.42" width="19.55" height="19.55"/><rect class="cls-2" x="74.92" y="71.42" width="19.55" height="19.55"/><rect class="cls-2" x="18.18" y="98.01" width="19.55" height="19.55"/><rect class="cls-2" x="46" y="98.01" width="19.55" height="19.55"/><rect class="cls-2" x="74.92" y="98.01" width="19.55" height="19.55"/><rect class="cls-2" x="18.18" y="124.59" width="19.55" height="19.55"/><rect class="cls-2" x="46" y="124.59" width="19.55" height="19.55"/><rect class="cls-2" x="74.92" y="124.59" width="19.55" height="19.55"/><rect class="cls-2" x="18.18" y="151.18" width="19.55" height="19.55"/><rect class="cls-2" x="46" y="151.18" width="19.55" height="19.55"/><rect class="cls-2" x="74.92" y="151.18" width="19.55" height="19.55"/><rect class="cls-2" x="18.18" y="177.76" width="19.55" height="19.55"/><rect class="cls-2" x="46" y="177.76" width="19.55" height="19.55"/><rect class="cls-2" x="74.92" y="177.76" width="19.55" height="19.55"/><rect class="cls-2" x="103.75" y="18.25" width="19.55" height="19.55"/><rect class="cls-2" x="103.75" y="44.84" width="19.55" height="19.55"/><rect class="cls-2" x="103.75" y="71.42" width="19.55" height="19.55"/><rect class="cls-2" x="103.75" y="98.01" width="19.55" height="19.55"/><rect class="cls-2" x="103.75" y="124.59" width="19.55" height="19.55"/><rect class="cls-2" x="103.75" y="151.18" width="19.55" height="19.55"/><rect class="cls-2" x="103.75" y="177.76" width="19.55" height="19.55"/></svg>