<svg id="Слой_1" data-name="Слой 1" xmlns="http://www.w3.org/2000/svg" viewBox="0 0 73.23 146.48"><defs><style>.cls-1{fill:#fff;}</style></defs><rect class="cls-1" width="18.77" height="18.77"/><rect class="cls-1" x="26.7" width="18.77" height="18.77"/><rect class="cls-1" x="54.46" width="18.77" height="18.77"/><rect class="cls-1" y="25.52" width="18.77" height="18.77"/><rect class="cls-1" x="26.7" y="25.52" width="18.77" height="18.77"/><rect class="cls-1" x="54.46" y="25.52" width="18.77" height="18.77"/><rect class="cls-1" y="51.04" width="18.77" height="18.77"/><rect class="cls-1" x="26.7" y="51.04" width="18.77" height="18.77"/><rect class="cls-1" x="54.46" y="51.04" width="18.77" height="18.77"/><rect class="cls-1" y="76.56" width="18.77" height="18.77"/><rect class="cls-1" x="26.7" y="76.56" width="18.77" height="18.77"/><rect class="cls-1" x="54.46" y="76.56" width="18.77" height="18.77"/><rect class="cls-1" y="102.19" width="18.77" height="18.77"/><rect class="cls-1" x="26.7" y="102.19" width="18.77" height="18.77"/><rect class="cls-1" x="54.46" y="102.19" width="18.77" height="18.77"/><rect class="cls-1" y="127.71" width="18.77" height="18.77"/><rect class="cls-1" x="26.7" y="127.71" width="18.77" height="18.77"/><rect class="cls-1" x="54.46" y="127.71" width="18.77" height="18.77"/></svg>