<svg id="Слой_1" data-name="Слой 1" xmlns="http://www.w3.org/2000/svg" viewBox="0 0 215.57 239.03"><defs><style>.cls-1{fill:#f9ad1d;}.cls-2{fill:#fff;}</style></defs><rect class="cls-1" width="215.57" height="239.03"/><rect class="cls-2" x="24.43" y="26.53" width="20.7" height="20.7"/><rect class="cls-2" x="24.43" y="54.68" width="20.7" height="20.7"/><rect class="cls-2" x="24.43" y="82.82" width="20.7" height="20.7"/><rect class="cls-2" x="24.43" y="110.97" width="20.7" height="20.7"/><rect class="cls-2" x="24.43" y="139.12" width="20.7" height="20.7"/><rect class="cls-2" x="24.43" y="167.26" width="20.7" height="20.7"/><rect class="cls-2" x="24.43" y="195.41" width="20.7" height="20.7"/><rect class="cls-2" x="53.45" y="26.53" width="20.7" height="20.7"/><rect class="cls-2" x="53.45" y="54.68" width="20.7" height="20.7"/><rect class="cls-2" x="53.45" y="82.82" width="20.7" height="20.7"/><rect class="cls-2" x="53.45" y="110.97" width="20.7" height="20.7"/><rect class="cls-2" x="53.45" y="139.12" width="20.7" height="20.7"/><rect class="cls-2" x="53.45" y="167.26" width="20.7" height="20.7"/><rect class="cls-2" x="53.45" y="195.41" width="20.7" height="20.7"/><rect class="cls-2" x="82.48" y="26.53" width="20.7" height="20.7"/><rect class="cls-2" x="82.48" y="54.68" width="20.7" height="20.7"/><rect class="cls-2" x="82.48" y="82.82" width="20.7" height="20.7"/><rect class="cls-2" x="82.48" y="110.97" width="20.7" height="20.7"/><rect class="cls-2" x="82.48" y="139.12" width="20.7" height="20.7"/><rect class="cls-2" x="82.48" y="167.26" width="20.7" height="20.7"/><rect class="cls-2" x="82.48" y="195.41" width="20.7" height="20.7"/><rect class="cls-2" x="111.5" y="26.53" width="20.7" height="20.7"/><rect class="cls-2" x="111.5" y="54.68" width="20.7" height="20.7"/><rect class="cls-2" x="111.5" y="82.82" width="20.7" height="20.7"/><rect class="cls-2" x="111.5" y="110.97" width="20.7" height="20.7"/><rect class="cls-2" x="111.5" y="139.12" width="20.7" height="20.7"/><rect class="cls-2" x="111.5" y="167.26" width="20.7" height="20.7"/><rect class="cls-2" x="111.5" y="195.41" width="20.7" height="20.7"/><rect class="cls-2" x="140.53" y="26.53" width="20.7" height="20.7"/><rect class="cls-2" x="140.53" y="54.68" width="20.7" height="20.7"/><rect class="cls-2" x="140.53" y="82.82" width="20.7" height="20.7"/><rect class="cls-2" x="140.53" y="110.97" width="20.7" height="20.7"/><rect class="cls-2" x="140.53" y="139.12" width="20.7" height="20.7"/><rect class="cls-2" x="140.53" y="167.26" width="20.7" height="20.7"/><rect class="cls-2" x="140.53" y="195.41" width="20.7" height="20.7"/><rect class="cls-2" x="169.55" y="26.53" width="20.7" height="20.7"/><rect class="cls-2" x="169.55" y="54.68" width="20.7" height="20.7"/><rect class="cls-2" x="169.55" y="82.82" width="20.7" height="20.7"/><rect class="cls-2" x="169.55" y="110.97" width="20.7" height="20.7"/><rect class="cls-2" x="169.55" y="139.12" width="20.7" height="20.7"/><rect class="cls-2" x="169.55" y="167.26" width="20.7" height="20.7"/><rect class="cls-2" x="169.55" y="195.41" width="20.7" height="20.7"/></svg>