<svg id="Слой_1" data-name="Слой 1" xmlns="http://www.w3.org/2000/svg" viewBox="0 0 200 200"><defs><style>.cls-1{fill:#fff;}</style></defs><path class="cls-1" d="M169.26,69.1h-2.57a8.17,8.17,0,0,1-6.6-3.3A19.46,19.46,0,0,0,144.53,58h-1A19.5,19.5,0,0,0,124,77.53v2.9H76V77.69a19.5,19.5,0,0,0-19.49-19.5h-1A19.44,19.44,0,0,0,39.91,66a8.2,8.2,0,0,1-6.6,3.3H30.74a19.5,19.5,0,0,0-19.5,19.49V111.4a19.5,19.5,0,0,0,19.5,19.5h2.57a8.17,8.17,0,0,1,6.6,3.3A19.46,19.46,0,0,0,55.47,142h1A19.5,19.5,0,0,0,76,122.47v-3H124v2.89a19.5,19.5,0,0,0,19.49,19.5h1A19.44,19.44,0,0,0,160.09,134a8.2,8.2,0,0,1,6.6-3.3h2.57a19.5,19.5,0,0,0,19.5-19.49V88.6A19.5,19.5,0,0,0,169.26,69.1Z"/></svg>