<svg id="Слой_1" data-name="Слой 1" xmlns="http://www.w3.org/2000/svg" viewBox="0 0 200 200"><defs><style>.cls-1{fill:#fff;}</style></defs><path class="cls-1" d="M137.37,64.91c7.74-4.92,12.71-13.45,15.06-18.31a4.38,4.38,0,0,0-1.83-5.73c-5.82-3.18-18.08-8.6-29.15-5A28.4,28.4,0,0,0,110,43.28V39.87a9.95,9.95,0,0,0-19.9,0V59.33c-3-.28-5.83-.66-8.57-1.16a16.48,16.48,0,0,0-10.66,1.6A62.95,62.95,0,0,0,59.35,163.6a28.71,28.71,0,0,0,28,4.81,39.21,39.21,0,0,1,25.32,0,28.73,28.73,0,0,0,28-4.81,62.93,62.93,0,0,0-3.28-98.69Z"/></svg>