<svg id="Слой_1" data-name="Слой 1" xmlns="http://www.w3.org/2000/svg" viewBox="0 0 110.66 121.93"><defs><style>.cls-1{fill:#672c83;}</style></defs><path class="cls-1" d="M5,0H26.24A5,5,0,0,1,30.8,2.91L50.85,46a5,5,0,0,0,9.2-.18l8.79-21L78.15,3.05a5,5,0,0,1,4.63-3h21a5,5,0,0,1,4.56,7.15L66.61,96.93q-6.33,13.35-15.15,19.18T28.6,121.93a64.73,64.73,0,0,1-15.09-1.71,5,5,0,0,1-3.72-6l3.6-15.76a5,5,0,0,1,6-3.78,31.71,31.71,0,0,0,6.49.73q8.34,0,12.61-5.52A5.07,5.07,0,0,0,39,84.52L.53,7.27A5,5,0,0,1,5,0Z"/></svg>