<svg id="Слой_1" data-name="Слой 1" xmlns="http://www.w3.org/2000/svg" viewBox="0 0 119.23 119.88"><defs><style>.cls-1{fill:#f7b231;}</style></defs><path class="cls-1" d="M47.55,0H72.16a5,5,0,0,1,4.69,3.23L118.9,113.05a5,5,0,0,1-4.7,6.83H94.7A5,5,0,0,1,90,116.59l-4.77-13a5,5,0,0,0-4.72-3.29H39.08a5,5,0,0,0-4.73,3.33l-4.63,12.87A5,5,0,0,1,25,119.88H5A5,5,0,0,1,.34,113L42.86,3.21A5,5,0,0,1,47.55,0Zm1.54,79.12H70.67a5,5,0,0,0,4.73-6.74L64.71,42.89a5,5,0,0,0-9.44,0L44.38,72.35A5,5,0,0,0,49.09,79.12Z"/></svg>