<svg id="Слой_1" data-name="Слой 1" xmlns="http://www.w3.org/2000/svg" viewBox="0 0 414 1072.02"><defs><style>.cls-1{fill:#2dabe3;}.cls-2{fill:#64328a;}.cls-3{fill:#2babe2;}.cls-4{fill:#63318a;}.cls-5{fill:#f9ae1f;}.cls-6{fill:#f9ad1d;}.cls-7{fill:none;}</style></defs><path class="cls-1" d="M40.81,28.5A7,7,0,0,0,50.46,35l.25-.13.38-.17c.13,0,.26-.11.4-.15a6.84,6.84,0,0,1,2.27-.38,7,7,0,0,1,5.76,3V59.92H38.07a7,7,0,0,0-3,5.76A6.84,6.84,0,0,0,35.42,68c0,.14.09.27.15.4l.17.38.13.25a7,7,0,1,1-13.46,2.67A6.85,6.85,0,0,1,23,68.74h0a1.47,1.47,0,0,0,.06-.14c.1-.21.18-.42.26-.64a6.84,6.84,0,0,0,.38-2.27,7,7,0,0,0-3-5.76H-.35V0H59.52V19.81a7,7,0,0,1-5.76,3,6.84,6.84,0,0,1-2.27-.38c-.22-.08-.43-.16-.64-.26l-.14-.06h0a6.85,6.85,0,0,0-2.91-.64A7,7,0,0,0,40.81,28.5Z"/><path class="cls-2" d="M100.68,28.5A7,7,0,0,0,110.34,35l.24-.13.39-.17c.13,0,.25-.11.39-.15a6.86,6.86,0,0,1,2.28-.38,7,7,0,0,1,5.76,3V59.92H97.94a7,7,0,0,1-3-5.76,6.87,6.87,0,0,1,.39-2.28,4.35,4.35,0,0,1,.25-.63l.06-.15h0a6.91,6.91,0,0,0,.63-2.91,7,7,0,1,0-14,0,6.8,6.8,0,0,0,.53,2.67c0,.08.08.17.12.24s.12.26.17.39a2.62,2.62,0,0,1,.15.39,6.86,6.86,0,0,1,.38,2.28,7,7,0,0,1-3,5.76H59.52V37.16a7,7,0,0,0-5.76-3,6.84,6.84,0,0,0-2.27.38c-.14,0-.27.1-.4.15l-.38.17-.25.13A7,7,0,1,1,47.79,21.5a6.85,6.85,0,0,1,2.91.64h0l.14.06c.21.1.42.18.64.26a6.84,6.84,0,0,0,2.27.38,7,7,0,0,0,5.76-3V0H119.4V19.81a7,7,0,0,1-5.76,3,6.86,6.86,0,0,1-2.28-.38,5.93,5.93,0,0,1-.63-.26l-.15-.06a7,7,0,0,0-9.9,6.36Z"/><path class="cls-3" d="M198,28.48a7,7,0,0,1-9.89,6.36h0l-.14-.07a6.08,6.08,0,0,0-.64-.25,6.84,6.84,0,0,0-2.27-.38,7,7,0,0,0-5.76,3V59.92H157.82a7,7,0,0,1-3-5.76,6.86,6.86,0,0,1,.38-2.28,5.9,5.9,0,0,1,.25-.63,1,1,0,0,1,.07-.15,6.91,6.91,0,0,0,.63-2.91,7,7,0,1,0-13.45,2.67l.12.24.18.39c.05.13.1.25.14.39a6.86,6.86,0,0,1,.38,2.28,7,7,0,0,1-3,5.76H119.4V37.16a7,7,0,0,0-5.76-3,6.86,6.86,0,0,0-2.28.38c-.14,0-.26.1-.39.15l-.39.17-.24.13a7,7,0,1,1,.24-12.82l.15.06a5.93,5.93,0,0,0,.63.26,6.86,6.86,0,0,0,2.28.38,7,7,0,0,0,5.76-3V0h59.87V19.81a7,7,0,0,0,5.76,3,6.84,6.84,0,0,0,2.27-.38l.4-.15.38-.17.25-.13A7,7,0,0,1,198,28.48Z"/><path class="cls-1" d="M280.3,28.5A7,7,0,0,0,290,35l.24-.13.38-.17c.14,0,.26-.11.4-.15a6.84,6.84,0,0,1,2.27-.38,7,7,0,0,1,5.76,3V59.92H277.56a7,7,0,0,1-3-5.76,6.62,6.62,0,0,1,.39-2.28,4.35,4.35,0,0,1,.25-.63l.06-.15h0a6.91,6.91,0,0,0,.63-2.91,7,7,0,1,0-13.46,2.67c0,.08.09.17.13.24s.12.26.17.39a2.62,2.62,0,0,1,.15.39,6.86,6.86,0,0,1,.38,2.28,7,7,0,0,1-3,5.76H239.14V37.16a7,7,0,0,1,5.76-3,6.9,6.9,0,0,1,2.28.38,5.9,5.9,0,0,1,.63.25l.14.07h0a7.06,7.06,0,0,0,2.91.62A7,7,0,1,0,248.2,22l-.25.13-.38.17-.39.15a6.9,6.9,0,0,1-2.28.38,7,7,0,0,1-5.76-3V0H299V19.81a7,7,0,0,1-5.76,3,6.84,6.84,0,0,1-2.27-.38,5.93,5.93,0,0,1-.63-.26l-.15-.06a7,7,0,0,0-9.9,6.36Z"/><path class="cls-4" d="M340.17,28.5A7,7,0,0,0,349.83,35l.24-.13.39-.17.39-.15a6.9,6.9,0,0,1,2.28-.38,7,7,0,0,1,5.76,3V59.92H337.44a6.94,6.94,0,0,0-3,5.76,6.84,6.84,0,0,0,.38,2.27c0,.14.09.27.14.4l.18.38.12.25a7,7,0,1,1-13.45,2.67,6.85,6.85,0,0,1,.63-2.91h0l.07-.14c.09-.21.18-.42.25-.64a6.84,6.84,0,0,0,.38-2.27,6.94,6.94,0,0,0-3-5.76H299V37.16a7,7,0,0,0-5.76-3,6.84,6.84,0,0,0-2.27.38c-.14,0-.26.1-.4.15l-.38.17L290,35a7,7,0,1,1,.24-12.82l.15.06a5.93,5.93,0,0,0,.63.26,6.84,6.84,0,0,0,2.27.38,7,7,0,0,0,5.76-3V0h59.88V19.81a7,7,0,0,1-5.76,3,6.9,6.9,0,0,1-2.28-.38,5.93,5.93,0,0,1-.63-.26l-.15-.06a6.92,6.92,0,0,0-2.91-.64A7,7,0,0,0,340.17,28.5Z"/><path class="cls-3" d="M414,0V59.92H397.31a7,7,0,0,1-3-5.76,6.86,6.86,0,0,1,.38-2.28,5.9,5.9,0,0,1,.25-.63l.07-.15h0a7.06,7.06,0,0,0,.62-2.91,7,7,0,1,0-13.45,2.67l.13.24c.06.13.12.26.17.39s.1.25.14.39a6.62,6.62,0,0,1,.39,2.28,7,7,0,0,1-3,5.76H358.89V37.16a7,7,0,0,0-5.76-3,6.9,6.9,0,0,0-2.28.38l-.39.15-.39.17-.24.13a7,7,0,1,1,.24-12.82l.15.06a5.93,5.93,0,0,0,.63.26,6.9,6.9,0,0,0,2.28.38,7,7,0,0,0,5.76-3V0Z"/><path class="cls-1" d="M78.24,148.22a7,7,0,0,1-7,7,6.91,6.91,0,0,1-2.91-.63l-.15-.07a4.35,4.35,0,0,0-.63-.25,7,7,0,0,0-8,2.65v22.75H38.07a7,7,0,0,1-3-5.76,6.84,6.84,0,0,1,.38-2.27c.08-.22.16-.43.25-.64l.07-.14h0a7,7,0,1,0-12.83-.24c0,.09.09.17.13.25l.17.38c.06.13.1.26.15.4a6.84,6.84,0,0,1,.38,2.27,7,7,0,0,1-3,5.76H-.35V119.79H20.72a7,7,0,0,0,3-5.76,6.9,6.9,0,0,0-.38-2.28c-.05-.13-.09-.26-.15-.39s-.11-.26-.17-.38-.09-.16-.13-.25a7,7,0,1,1,13.46-2.67,7.07,7.07,0,0,1-.63,2.91h0s-.05.09-.07.14-.17.41-.25.63A6.9,6.9,0,0,0,35,114a7,7,0,0,0,3,5.76H59.52v19.77a7,7,0,0,0,5.76,3,7.17,7.17,0,0,0,2.28-.37l.39-.15.39-.18a1.79,1.79,0,0,0,.24-.12,7,7,0,0,1,9.66,6.46Z"/><path class="cls-5" d="M78.24,208.1a7,7,0,0,1-7,7,7.06,7.06,0,0,1-2.91-.62h0l-.15-.07a5.9,5.9,0,0,0-.63-.25,6.9,6.9,0,0,0-2.28-.38,7,7,0,0,0-5.76,3v22.76H38.07a7,7,0,0,1-3-5.76,6.86,6.86,0,0,1,.38-2.28c.08-.22.16-.43.25-.63l.07-.15h0a7,7,0,0,0-6.37-9.9,7,7,0,0,0-6.46,9.66l.13.24c.06.13.12.26.17.39s.1.25.15.39a6.86,6.86,0,0,1,.38,2.28,7,7,0,0,1-3,5.76H-.35V179.66H20.72a7,7,0,0,0,3-5.76,6.84,6.84,0,0,0-.38-2.27c-.05-.14-.09-.27-.15-.4l-.17-.38c0-.08-.09-.16-.13-.25a7,7,0,1,1,12.83.24h0l-.07.14c-.09.21-.17.42-.25.64A6.84,6.84,0,0,0,35,173.9a7,7,0,0,0,3,5.76H59.52v19.77a7,7,0,0,0,5.76,3,7.17,7.17,0,0,0,2.28-.38l.39-.15.39-.17.24-.13a7,7,0,0,1,9.66,6.47Z"/><path class="cls-2" d="M78.24,268a7,7,0,0,1-7,7,6.91,6.91,0,0,1-2.91-.63h0l-.15-.06a5.93,5.93,0,0,0-.63-.26,6.9,6.9,0,0,0-2.28-.38,7,7,0,0,0-5.76,3v22.76H38.07a7,7,0,0,1-3-5.76,6.9,6.9,0,0,1,.38-2.28c.08-.22.16-.43.25-.63s0-.1.07-.14h0a7,7,0,0,0-6.37-9.9,7,7,0,0,0-6.46,9.66l.13.25c.06.12.12.25.17.38s.1.26.15.39a6.9,6.9,0,0,1,.38,2.28,7,7,0,0,1-3,5.76H-.35V239.54H20.72a7,7,0,0,0,3-5.76,6.86,6.86,0,0,0-.38-2.28c-.05-.14-.09-.26-.15-.39s-.11-.26-.17-.39l-.13-.24a7,7,0,1,1,13.46-2.67,7.07,7.07,0,0,1-.63,2.91h0l-.07.15c-.09.2-.17.41-.25.63a6.86,6.86,0,0,0-.38,2.28,7,7,0,0,0,3,5.76H59.52v19.77a7,7,0,0,0,5.76,3,6.9,6.9,0,0,0,2.28-.38l.39-.15a3.29,3.29,0,0,0,.39-.17l.24-.13A7,7,0,0,1,78.24,268Z"/><path class="cls-1" d="M78.24,327.84a7,7,0,0,1-7,7,6.91,6.91,0,0,1-2.91-.63l-.15-.07a4.35,4.35,0,0,0-.63-.25,6.91,6.91,0,0,0-2.28-.39,7,7,0,0,0-5.76,3v22.76H38.07A7,7,0,0,0,35,365a6.9,6.9,0,0,0,.38,2.28c0,.13.09.26.15.39s.11.26.17.39.08.16.13.24A7,7,0,1,1,23,368.1h0a.94.94,0,0,0,.06-.15,5.93,5.93,0,0,0,.26-.63,6.9,6.9,0,0,0,.38-2.28,7,7,0,0,0-3-5.76H-.35V299.41H20.72a7,7,0,0,0,3-5.76,6.9,6.9,0,0,0-.38-2.28c-.05-.13-.09-.26-.15-.39s-.11-.26-.17-.38l-.13-.25a7,7,0,1,1,13.46-2.67,7.07,7.07,0,0,1-.63,2.91h0s-.05.09-.07.14-.17.41-.25.63a6.9,6.9,0,0,0-.38,2.28,7,7,0,0,0,3,5.76H59.52v19.77a7,7,0,0,0,5.76,3,7.17,7.17,0,0,0,2.28-.37l.39-.15.39-.18.24-.12a7,7,0,0,1,2.67-.53,5.88,5.88,0,0,1,.6,0,5.06,5.06,0,0,1,.68.09l.56.13a2.64,2.64,0,0,1,.4.12,5.91,5.91,0,0,1,1,.43l.21.11.18.11a2.92,2.92,0,0,1,.37.24c.15.1.3.22.45.34s.33.29.49.45.31.32.45.49a3.79,3.79,0,0,1,.3.4l0,.07a2.11,2.11,0,0,1,.18.27s0,0,0,0a3.64,3.64,0,0,1,.23.39,5,5,0,0,1,.27.57,5.37,5.37,0,0,1,.21.56c.07.22.13.45.18.68a1.43,1.43,0,0,1,0,.22,4.18,4.18,0,0,1,.09.71A4.93,4.93,0,0,1,78.24,327.84Z"/><path class="cls-4" d="M78.24,387.72a7,7,0,0,1-9.9,6.35l-.15-.07a5.9,5.9,0,0,0-.63-.25,6.9,6.9,0,0,0-2.28-.38,7,7,0,0,0-5.76,3v22.76H38.07a7,7,0,0,0-3,5.75,6.86,6.86,0,0,0,.38,2.28c0,.14.09.26.15.4l.17.38c0,.08.08.16.13.24A7,7,0,1,1,23,428h0a.94.94,0,0,0,.06-.15,5.93,5.93,0,0,0,.26-.63,6.86,6.86,0,0,0,.38-2.28,7,7,0,0,0-3-5.75H-.35V359.28H20.72a7,7,0,0,1,3,5.76,6.9,6.9,0,0,1-.38,2.28,5.93,5.93,0,0,1-.26.63.94.94,0,0,1-.06.15h0a6.91,6.91,0,0,0-.63,2.91,7,7,0,1,0,13.46-2.67c0-.08-.09-.17-.13-.24s-.12-.26-.17-.39-.1-.26-.15-.39A6.9,6.9,0,0,1,35,365a7,7,0,0,1,3-5.76H59.52v19.77a7,7,0,0,0,5.76,3,7.17,7.17,0,0,0,2.28-.38l.39-.15.39-.17.24-.13a7,7,0,0,1,9.66,6.47Z"/><path class="cls-3" d="M78.24,447.59a7,7,0,0,1-7,7,7.07,7.07,0,0,1-2.91-.63h0l-.15-.06a5.93,5.93,0,0,0-.63-.26,6.9,6.9,0,0,0-2.28-.38,7,7,0,0,0-5.76,3V479H38.07a7,7,0,0,1-3-5.76,6.9,6.9,0,0,1,.38-2.28c.08-.22.16-.43.25-.63l.07-.15h0a7,7,0,0,0-6.37-9.9A7,7,0,0,0,22.92,470l.13.24c.06.13.12.26.17.39s.1.26.15.39a6.9,6.9,0,0,1,.38,2.28,7,7,0,0,1-3,5.76H-.35V419.16H20.72a7,7,0,0,1,3,5.75,6.86,6.86,0,0,1-.38,2.28,5.93,5.93,0,0,1-.26.63.94.94,0,0,1-.06.15h0a6.91,6.91,0,0,0-.63,2.91,7,7,0,1,0,13.46-2.67c0-.08-.09-.16-.13-.24l-.17-.38c-.06-.14-.1-.26-.15-.4a6.86,6.86,0,0,1-.38-2.28,7,7,0,0,1,3-5.75H59.52v19.77a7,7,0,0,0,5.76,3,6.9,6.9,0,0,0,2.28-.38l.39-.15.39-.17.24-.13a7,7,0,0,1,9.66,6.47Z"/><path class="cls-4" d="M40.81,507.48a7,7,0,0,0,9.65,6.46l.25-.13a3.89,3.89,0,0,1,.38-.16,2.74,2.74,0,0,1,.4-.15,6.85,6.85,0,0,1,2.27-.39,7,7,0,0,1,5.76,3V538.9H38.07a7,7,0,0,1-3-5.76,6.8,6.8,0,0,1,.38-2.27l.12-.33.13-.31,0,0a.05.05,0,0,1,0,0l0-.07h0a6.91,6.91,0,0,0,.63-2.91,7,7,0,1,0-13.46,2.67l.13.25c.06.12.12.25.17.38s.1.26.15.4a6.8,6.8,0,0,1,.38,2.27,7,7,0,0,1-3,5.76H-.35V479H20.72a7,7,0,0,0,3-5.76,6.9,6.9,0,0,0-.38-2.28c-.05-.13-.09-.26-.15-.39s-.11-.26-.17-.39l-.13-.24a7,7,0,1,1,13.46-2.67,7.07,7.07,0,0,1-.63,2.91h0l-.07.15c-.09.2-.17.41-.25.63a6.9,6.9,0,0,0-.38,2.28,7,7,0,0,0,3,5.76H59.52V498.8a7,7,0,0,1-5.76,3,6.84,6.84,0,0,1-2.27-.38c-.22-.07-.43-.16-.64-.25l-.14-.07h0a6.85,6.85,0,0,0-2.91-.63A7,7,0,0,0,40.81,507.48Z"/><path class="cls-6" d="M414,119.79V59.92H397.31a7,7,0,0,1-3-5.76,6.86,6.86,0,0,1,.38-2.28,5.9,5.9,0,0,1,.25-.63l.07-.15h0a7.06,7.06,0,0,0,.62-2.91,7,7,0,1,0-13.45,2.67l.13.24c.06.13.12.26.17.39s.1.25.14.39a6.62,6.62,0,0,1,.39,2.28,7,7,0,0,1-3,5.76H337.44a6.94,6.94,0,0,0-3,5.76,6.84,6.84,0,0,0,.38,2.27c0,.14.09.27.14.4l.18.38.12.25a7,7,0,1,1-13.45,2.67,6.85,6.85,0,0,1,.63-2.91h0l.07-.14c.09-.21.18-.42.25-.64a6.84,6.84,0,0,0,.38-2.27,6.94,6.94,0,0,0-3-5.76H277.56a7,7,0,0,1-3-5.76,6.62,6.62,0,0,1,.39-2.28,4.35,4.35,0,0,1,.25-.63l.06-.15h0a6.91,6.91,0,0,0,.63-2.91,7,7,0,1,0-13.46,2.67c0,.08.09.17.13.24s.12.26.17.39a2.62,2.62,0,0,1,.15.39,6.86,6.86,0,0,1,.38,2.28,7,7,0,0,1-3,5.76H239.14V37.16a7,7,0,0,1,5.76-3,6.9,6.9,0,0,1,2.28.38,5.9,5.9,0,0,1,.63.25l.14.07h0a7.06,7.06,0,0,0,2.91.62A7,7,0,1,0,248.2,22l-.25.13-.38.17-.39.15a6.9,6.9,0,0,1-2.28.38,7,7,0,0,1-5.76-3V0H179.27V19.81a7,7,0,0,0,5.76,3,6.84,6.84,0,0,0,2.27-.38l.4-.15.38-.17.25-.13A7,7,0,1,1,191,35.46a7,7,0,0,1-2.91-.62h0l-.14-.07a6.08,6.08,0,0,0-.64-.25,6.84,6.84,0,0,0-2.27-.38,7,7,0,0,0-5.76,3V59.92H157.82a7,7,0,0,1-3-5.76,6.86,6.86,0,0,1,.38-2.28,5.9,5.9,0,0,1,.25-.63,1,1,0,0,1,.07-.15,6.91,6.91,0,0,0,.63-2.91,7,7,0,1,0-13.45,2.67l.12.24.18.39c.05.13.1.25.14.39a6.86,6.86,0,0,1,.38,2.28,7,7,0,0,1-3,5.76H97.94a7,7,0,0,1-3-5.76,6.87,6.87,0,0,1,.39-2.28,4.35,4.35,0,0,1,.25-.63l.06-.15h0a6.91,6.91,0,0,0,.63-2.91,7,7,0,1,0-14,0,6.8,6.8,0,0,0,.53,2.67c0,.08.08.17.12.24s.12.26.17.39a2.62,2.62,0,0,1,.15.39,6.86,6.86,0,0,1,.38,2.28,7,7,0,0,1-3,5.76H38.07a7,7,0,0,0-3,5.76A6.84,6.84,0,0,0,35.42,68c0,.14.09.27.15.4l.17.38.13.25a7,7,0,1,1-13.46,2.67A6.85,6.85,0,0,1,23,68.74h0a1.47,1.47,0,0,0,.06-.14c.1-.21.18-.42.26-.64a6.84,6.84,0,0,0,.38-2.27,7,7,0,0,0-3-5.76H-.35v59.87H20.72a7,7,0,0,0,3-5.76,6.9,6.9,0,0,0-.38-2.28c-.05-.13-.09-.26-.15-.39s-.11-.26-.17-.38-.09-.16-.13-.25a7,7,0,1,1,13.46-2.67,7.07,7.07,0,0,1-.63,2.91h0s-.05.09-.07.14-.17.41-.25.63A6.9,6.9,0,0,0,35,114a7,7,0,0,0,3,5.76H59.52v19.77a7,7,0,0,0,5.76,3,7.17,7.17,0,0,0,2.28-.37l.39-.15.39-.18a1.79,1.79,0,0,0,.24-.12,7,7,0,1,1,2.67,13.45,6.91,6.91,0,0,1-2.91-.63l-.15-.07a4.35,4.35,0,0,0-.63-.25,7,7,0,0,0-8,2.65v42.52a7,7,0,0,0,5.76,3,7.17,7.17,0,0,0,2.28-.38l.39-.15.39-.17.24-.13a7,7,0,1,1,2.67,13.45,7.06,7.06,0,0,1-2.91-.62h0l-.15-.07a5.9,5.9,0,0,0-.63-.25,6.9,6.9,0,0,0-2.28-.38,7,7,0,0,0-5.76,3v42.53a7,7,0,0,0,5.76,3,6.9,6.9,0,0,0,2.28-.38l.39-.15a3.29,3.29,0,0,0,.39-.17l.24-.13a7,7,0,1,1-.24,12.83h0l-.15-.06a5.93,5.93,0,0,0-.63-.26,6.9,6.9,0,0,0-2.28-.38,7,7,0,0,0-5.76,3v42.53a7,7,0,0,0,5.76,3,7.17,7.17,0,0,0,2.28-.37l.39-.15.39-.18.24-.12a7,7,0,0,1,2.67-.53,5.88,5.88,0,0,1,.6,0,5.06,5.06,0,0,1,.68.09,3.5,3.5,0,0,1,.56.13,2.64,2.64,0,0,1,.4.12,5.91,5.91,0,0,1,1,.43l.21.11.18.11a2.92,2.92,0,0,1,.37.24c.15.1.3.22.45.34a5.23,5.23,0,0,1,.49.45,5.12,5.12,0,0,1,.45.49,3.79,3.79,0,0,1,.3.4l0,.07a2.11,2.11,0,0,1,.18.27s0,0,0,0a3.64,3.64,0,0,1,.23.39,5,5,0,0,1,.27.57,5.37,5.37,0,0,1,.21.56c.07.22.13.45.18.68a1.43,1.43,0,0,1,0,.22,4.18,4.18,0,0,1,.09.71,4.93,4.93,0,0,1,0,.55,7,7,0,0,1-7,7,6.91,6.91,0,0,1-2.91-.63l-.15-.07a4.35,4.35,0,0,0-.63-.25,6.91,6.91,0,0,0-2.28-.39,7,7,0,0,0-5.76,3v42.53a7,7,0,0,0,5.76,3,7.17,7.17,0,0,0,2.28-.38l.39-.15.39-.17.24-.13a7,7,0,1,1,2.67,13.45,6.91,6.91,0,0,1-2.91-.63l-.15-.07a5.9,5.9,0,0,0-.63-.25,6.9,6.9,0,0,0-2.28-.38,7,7,0,0,0-5.76,3v42.53a7,7,0,0,0,5.76,3,6.9,6.9,0,0,0,2.28-.38l.39-.15.39-.17.24-.13a7,7,0,1,1,2.67,13.46,7.07,7.07,0,0,1-2.91-.63h0l-.15-.06a5.93,5.93,0,0,0-.63-.26,6.9,6.9,0,0,0-2.28-.38,7,7,0,0,0-5.76,3V498.8a7,7,0,0,1-5.76,3,6.84,6.84,0,0,1-2.27-.38c-.22-.07-.43-.16-.64-.25l-.14-.07h0a6.85,6.85,0,0,0-2.91-.63,7,7,0,1,0,2.67,13.45l.25-.13a3.89,3.89,0,0,1,.38-.16,2.74,2.74,0,0,1,.4-.15,6.85,6.85,0,0,1,2.27-.39,7,7,0,0,1,5.76,3V538.9H38.07a7,7,0,0,1-3-5.76,6.8,6.8,0,0,1,.38-2.27l.12-.33.13-.31,0,0a.05.05,0,0,1,0,0l0-.07h0a6.91,6.91,0,0,0,.63-2.91,7,7,0,1,0-13.46,2.67l.13.25c.06.12.12.25.17.38s.1.26.15.4a6.8,6.8,0,0,1,.38,2.27,7,7,0,0,1-3,5.76H-.35v59.87H20.72a7,7,0,0,0,3-5.76,6.84,6.84,0,0,0-.38-2.27c-.05-.14-.09-.27-.15-.4l-.17-.38-.13-.25A7,7,0,1,1,36.38,587a6.85,6.85,0,0,1-.63,2.91h0a1.47,1.47,0,0,0-.06.14c-.1.21-.18.42-.26.64A6.84,6.84,0,0,0,35,593a7,7,0,0,0,3,5.76H59.52v19.77a7,7,0,0,0,5.76,3,6.86,6.86,0,0,0,2.28-.38L68,621l.39-.17.24-.13a7,7,0,1,1,2.67,13.45,7.06,7.06,0,0,1-2.91-.62h0l-.15-.07a5.9,5.9,0,0,0-.63-.25,6.86,6.86,0,0,0-2.28-.38,7,7,0,0,0-5.76,3v22.76H38.07a7,7,0,0,1-3-5.76,6.86,6.86,0,0,1,.38-2.28,5.93,5.93,0,0,1,.26-.63.94.94,0,0,1,.06-.15h0a6.91,6.91,0,0,0,.63-2.91,7,7,0,1,0-13.46,2.67c0,.08.09.17.13.24s.12.26.17.39.1.25.15.39a6.86,6.86,0,0,1,.38,2.28,7,7,0,0,1-3,5.76H-.35v59.87H59.52v19.77a7,7,0,0,1-5.76,3,7.11,7.11,0,0,1-2.27-.37c-.22-.08-.43-.16-.64-.26l-.14-.07h0a7,7,0,1,0-.24,12.82l.25-.12.38-.17c.13,0,.26-.11.4-.15a6.84,6.84,0,0,1,2.27-.38,6.94,6.94,0,0,1,5.76,3v42.52a7,7,0,0,0,5.76,3,6.9,6.9,0,0,0,2.28-.38l.39-.15.39-.17.24-.13a7,7,0,1,1,2.67,13.45,7.06,7.06,0,0,1-2.91-.62h0l-.15-.07a5.9,5.9,0,0,0-.63-.25,6.9,6.9,0,0,0-2.28-.38,7,7,0,0,0-5.76,3V858a7,7,0,0,0,5.76,3,6.9,6.9,0,0,0,2.28-.38,2.62,2.62,0,0,0,.39-.15,3.29,3.29,0,0,0,.39-.17l.24-.13a7,7,0,1,1-.24,12.83h0l-.15-.06a4.35,4.35,0,0,0-.63-.25,6.66,6.66,0,0,0-2.28-.39,7,7,0,0,0-5.76,3v42.53a7,7,0,0,0,5.76,3,7.17,7.17,0,0,0,2.28-.37l.39-.15.39-.18.24-.12a7,7,0,1,1,2.67,13.45,6.91,6.91,0,0,1-2.91-.63l-.15-.07a4.35,4.35,0,0,0-.63-.25,7,7,0,0,0-8,2.64V958H80.59a7,7,0,0,0,3-5.76,6.84,6.84,0,0,0-.38-2.27,2.74,2.74,0,0,0-.15-.4l-.17-.38L82.8,949a6.77,6.77,0,0,1-.53-2.67,7,7,0,0,1,14,0,6.85,6.85,0,0,1-.63,2.91h0l-.06.14a5,5,0,0,0-.25.64,6.85,6.85,0,0,0-.39,2.27,7,7,0,0,0,3,5.76h42.52a6.94,6.94,0,0,0,3-5.76,6.84,6.84,0,0,0-.38-2.27c0-.14-.09-.27-.14-.4l-.18-.38c0-.08-.08-.16-.12-.25a7,7,0,1,1,13.45-2.67,6.85,6.85,0,0,1-.63,2.91h0l-.07.14c-.09.21-.18.42-.25.64a6.84,6.84,0,0,0-.38,2.27,6.94,6.94,0,0,0,3,5.76h42.52a7,7,0,0,0,3-5.76A6.6,6.6,0,0,0,203,950c0-.14-.09-.27-.14-.4l-.17-.38c0-.08-.09-.16-.13-.25a7,7,0,1,1,12.83.24h0l-.07.14c-.09.21-.18.42-.25.64a6.84,6.84,0,0,0-.38,2.27,7,7,0,0,0,3,5.76h42.52a7,7,0,0,1,3,5.76,6.86,6.86,0,0,1-.38,2.28,5.9,5.9,0,0,1-.25.63l-.07.15h0a7.06,7.06,0,0,0-.62,2.91,7,7,0,1,0,13.45-2.67,1.83,1.83,0,0,0-.13-.24c-.06-.13-.12-.26-.17-.39s-.1-.25-.14-.39a6.62,6.62,0,0,1-.39-2.28,7,7,0,0,1,3-5.76h42.52a6.94,6.94,0,0,0,3-5.76,6.84,6.84,0,0,0-.38-2.27c0-.14-.09-.27-.14-.4l-.18-.38c0-.08-.08-.16-.12-.25a7,7,0,1,1,13.45-2.67,6.85,6.85,0,0,1-.63,2.91h0s-.05.1-.07.14a5,5,0,0,0-.25.64,6.84,6.84,0,0,0-.38,2.27,6.94,6.94,0,0,0,3,5.76H380a7,7,0,0,0,3-5.76,6.6,6.6,0,0,0-.39-2.27c0-.14-.09-.27-.14-.4l-.17-.38c0-.08-.09-.16-.13-.25a7,7,0,1,1,12.83.24h0l-.07.14c-.09.21-.18.42-.25.64a6.84,6.84,0,0,0-.38,2.27,7,7,0,0,0,3,5.76H414V898.82H299v-779ZM47.79,680.11a7.17,7.17,0,0,0-2.08.31,8.08,8.08,0,0,0-1.25.53,6,6,0,0,1,1.25-.53,6.85,6.85,0,0,1,2.08-.32,6.15,6.15,0,0,1,1.15.1A7.15,7.15,0,0,0,47.79,680.11Zm3.3,13.16-.13.05.13-.06.2-.07Zm32-43c0-.13-.11-.26-.17-.39l.18.39.07.19A1.54,1.54,0,0,0,83.09,650.22Zm0-59.88-.17-.38.18.38c0,.06.05.13.07.2ZM95.55,650l.06-.15h0A1,1,0,0,0,95.55,650Zm0-59.88.06-.14h0Z"/><path class="cls-5" d="M35.69,530.2a0,0,0,0,0,0,0,2.92,2.92,0,0,0-.14.31l.13-.31Z"/><path class="cls-6" d="M95.62,590l-.07.14.06-.14Z"/><path class="cls-1" d="M78.24,627.21a7,7,0,0,1-7,7,7.06,7.06,0,0,1-2.91-.62h0l-.15-.07a5.9,5.9,0,0,0-.63-.25,6.86,6.86,0,0,0-2.28-.38,7,7,0,0,0-5.76,3v22.76H38.07a7,7,0,0,1-3-5.76,6.86,6.86,0,0,1,.38-2.28,5.93,5.93,0,0,1,.26-.63.94.94,0,0,1,.06-.15h0a6.91,6.91,0,0,0,.63-2.91,7,7,0,1,0-13.46,2.67c0,.08.09.17.13.24s.12.26.17.39.1.25.15.39a6.86,6.86,0,0,1,.38,2.28,7,7,0,0,1-3,5.76H-.35V598.77H20.72a7,7,0,0,0,3-5.76,6.84,6.84,0,0,0-.38-2.27c-.05-.14-.09-.27-.15-.4l-.17-.38-.13-.25A7,7,0,1,1,36.38,587a6.85,6.85,0,0,1-.63,2.91h0a1.47,1.47,0,0,0-.06.14c-.1.21-.18.42-.26.64A6.84,6.84,0,0,0,35,593a7,7,0,0,0,3,5.76H59.52v19.77a7,7,0,0,0,5.76,3,6.86,6.86,0,0,0,2.28-.38L68,621l.39-.17.24-.13a7,7,0,0,1,9.66,6.47Z"/><path class="cls-5" d="M51.29,693.19l-.2.08-.13.05.13-.06Z"/><path class="cls-6" d="M51.29,693.19l-.2.08-.13.05.13-.06Z"/><path class="cls-6" d="M83.17,650.41a1.54,1.54,0,0,0-.08-.19c0-.13-.11-.26-.17-.39l.18.39Z"/><path class="cls-6" d="M83.17,650.41a1.54,1.54,0,0,0-.08-.19c0-.13-.11-.26-.17-.39l.18.39Z"/><path class="cls-6" d="M95.62,590l-.07.14.06-.14Z"/><path class="cls-1" d="M40.81,747a7,7,0,0,0,9.65,6.46l.25-.12.38-.17c.13,0,.26-.11.4-.15a6.84,6.84,0,0,1,2.27-.38,6.94,6.94,0,0,1,5.76,3v22.75H38.07a7,7,0,0,0-3,5.76,6.86,6.86,0,0,0,.38,2.28c0,.14.09.26.15.39s.11.26.17.39.08.16.13.24A7,7,0,1,1,23,787.21h0a.94.94,0,0,0,.06-.15,5.93,5.93,0,0,0,.26-.63,6.86,6.86,0,0,0,.38-2.28,7,7,0,0,0-3-5.76H-.35V718.52H59.52v19.77a7,7,0,0,1-5.76,3,7.11,7.11,0,0,1-2.27-.37c-.22-.08-.43-.16-.64-.26l-.14-.07h0A7,7,0,0,0,40.81,747Z"/><path class="cls-2" d="M78.24,806.83a7,7,0,0,1-7,7,7.06,7.06,0,0,1-2.91-.62h0l-.15-.07a5.9,5.9,0,0,0-.63-.25,6.9,6.9,0,0,0-2.28-.38,7,7,0,0,0-5.76,3v22.76H38.07a7,7,0,0,1-3-5.76,6.86,6.86,0,0,1,.38-2.28c.08-.22.16-.43.25-.63l.07-.15h0a7,7,0,0,0-6.37-9.9,7,7,0,0,0-6.46,9.66l.13.24c.06.13.12.26.17.39s.1.25.15.39a6.86,6.86,0,0,1,.38,2.28,7,7,0,0,1-3,5.76H-.35V778.39H20.72a7,7,0,0,1,3,5.76,6.86,6.86,0,0,1-.38,2.28,5.93,5.93,0,0,1-.26.63.94.94,0,0,1-.06.15h0a6.91,6.91,0,0,0-.63,2.91,7,7,0,1,0,13.46-2.67c0-.08-.09-.17-.13-.24s-.12-.26-.17-.39-.1-.25-.15-.39a6.86,6.86,0,0,1-.38-2.28,7,7,0,0,1,3-5.76H59.52v19.77a7,7,0,0,0,5.76,3,6.9,6.9,0,0,0,2.28-.38l.39-.15.39-.17.24-.13a7,7,0,0,1,9.66,6.47Z"/><path class="cls-1" d="M78.24,866.7a7,7,0,0,1-7,7,6.91,6.91,0,0,1-2.91-.63h0l-.15-.06a4.35,4.35,0,0,0-.63-.25,6.66,6.66,0,0,0-2.28-.39,7,7,0,0,0-5.76,3v22.76H38.07a7,7,0,0,1-3-5.76,6.9,6.9,0,0,1,.38-2.28c.08-.22.16-.43.25-.63s0-.1.07-.14h0a7,7,0,0,0-6.37-9.9,7,7,0,0,0-6.46,9.66l.13.25c.06.12.12.25.17.38s.1.26.15.39a6.9,6.9,0,0,1,.38,2.28,7,7,0,0,1-3,5.76H-.35V838.27H20.72a7,7,0,0,0,3-5.76,6.86,6.86,0,0,0-.38-2.28c-.05-.14-.09-.26-.15-.39s-.11-.26-.17-.39l-.13-.24a7,7,0,1,1,13.46-2.67,7.07,7.07,0,0,1-.63,2.91h0l-.07.15c-.09.2-.17.41-.25.63a6.86,6.86,0,0,0-.38,2.28,7,7,0,0,0,3,5.76H59.52V858a7,7,0,0,0,5.76,3,6.9,6.9,0,0,0,2.28-.38,2.62,2.62,0,0,0,.39-.15,3.29,3.29,0,0,0,.39-.17l.24-.13a7,7,0,0,1,9.66,6.47Z"/><path class="cls-5" d="M78.24,926.57a7,7,0,0,1-7,7,6.91,6.91,0,0,1-2.91-.63l-.15-.07a4.35,4.35,0,0,0-.63-.25,7,7,0,0,0-8,2.64V958H38.07a7,7,0,0,1-3-5.76,6.84,6.84,0,0,1,.38-2.27c.08-.22.16-.43.25-.64l.07-.14h0A7,7,0,1,0,22.92,949c0,.09.09.17.13.25l.17.38c.06.13.1.26.15.4a6.84,6.84,0,0,1,.38,2.27,7,7,0,0,1-3,5.76H-.35V898.14H20.72a7,7,0,0,0,3-5.76,6.9,6.9,0,0,0-.38-2.28c-.05-.13-.09-.26-.15-.39s-.11-.26-.17-.38l-.13-.25a7,7,0,1,1,13.46-2.67,7.07,7.07,0,0,1-.63,2.91h0s-.05.09-.07.14-.17.41-.25.63a6.9,6.9,0,0,0-.38,2.28,7,7,0,0,0,3,5.76H59.52v19.77a7,7,0,0,0,5.76,3,7.17,7.17,0,0,0,2.28-.37l.39-.15.39-.18.24-.12a7,7,0,0,1,9.66,6.46Z"/><path class="cls-4" d="M78.24,986.45a7,7,0,0,1-9.9,6.35l-.15-.07a5.9,5.9,0,0,0-.63-.25,6.9,6.9,0,0,0-2.28-.38,7,7,0,0,0-5.76,3v22.76H-.35V958H20.72a7,7,0,0,0,3-5.76,6.84,6.84,0,0,0-.38-2.27c-.05-.14-.09-.27-.15-.4l-.17-.38c0-.08-.09-.16-.13-.25a7,7,0,1,1,12.83.24h0l-.07.14c-.09.21-.17.42-.25.64a6.84,6.84,0,0,0-.38,2.27,7,7,0,0,0,3,5.76H59.52v19.77a7,7,0,0,0,5.76,3,7.17,7.17,0,0,0,2.28-.38l.39-.15.39-.17.24-.13a7,7,0,0,1,9.66,6.47Z"/><path class="cls-3" d="M138.11,986.45a7,7,0,0,1-9.9,6.35l-.14-.07c-.21-.09-.42-.18-.64-.25a6.84,6.84,0,0,0-2.27-.38,7,7,0,0,0-5.76,3v22.76H97.94a7,7,0,0,0-3,5.76,6.85,6.85,0,0,0,.39,2.27c0,.14.09.26.14.4l.17.38c0,.08.09.16.13.24a7,7,0,1,1-13,5.19,6.81,6.81,0,0,1-.48-2.52,7.06,7.06,0,0,1,.62-2.91h0l.07-.14c.09-.21.18-.42.25-.64a6.84,6.84,0,0,0,.38-2.27,7,7,0,0,0-3-5.76H59.52V995.13a7,7,0,0,1,5.76-3,6.9,6.9,0,0,1,2.28.38,5.9,5.9,0,0,1,.63.25l.15.07a7,7,0,0,0,9.9-6.35A7,7,0,0,0,68.58,980l-.24.13-.39.17-.39.15a7.17,7.17,0,0,1-2.28.38,7,7,0,0,1-5.76-3V958H80.59a7,7,0,0,0,3-5.76,6.84,6.84,0,0,0-.38-2.27,2.74,2.74,0,0,0-.15-.4l-.17-.38L82.8,949a6.77,6.77,0,0,1-.53-2.67,7,7,0,0,1,14,0,6.85,6.85,0,0,1-.63,2.91h0l-.06.14a5,5,0,0,0-.25.64,6.85,6.85,0,0,0-.39,2.27,7,7,0,0,0,3,5.76H119.4v19.77a7,7,0,0,0,5.76,3,7.11,7.11,0,0,0,2.27-.38l.4-.15.38-.17.24-.13a7,7,0,0,1,9.66,6.47Z"/><path class="cls-4" d="M414,958v59.88H358.89V995.13a7,7,0,0,1,5.76-3,6.84,6.84,0,0,1,2.27.38c.22.07.43.16.64.25l.14.07h0a6.88,6.88,0,0,0,2.91.63A7,7,0,1,0,368,980l-.25.13-.38.17-.4.15a7.11,7.11,0,0,1-2.27.38,7,7,0,0,1-5.76-3V958H380a7,7,0,0,0,3-5.76,6.6,6.6,0,0,0-.39-2.27c0-.14-.09-.27-.14-.4l-.17-.38c0-.08-.09-.16-.13-.25a7,7,0,1,1,12.83.24h0l-.07.14c-.09.21-.18.42-.25.64a6.84,6.84,0,0,0-.38,2.27,7,7,0,0,0,3,5.76Z"/><path class="cls-3" d="M377.6,986.45a7,7,0,0,1-7,7,6.88,6.88,0,0,1-2.91-.63h0l-.14-.07c-.21-.09-.42-.18-.64-.25a6.84,6.84,0,0,0-2.27-.38,7,7,0,0,0-5.76,3v22.76H337.44a7,7,0,0,1-3-5.76,6.86,6.86,0,0,1,.38-2.28,4.35,4.35,0,0,1,.25-.63,1,1,0,0,1,.07-.15,6.91,6.91,0,0,0,.63-2.91,7,7,0,1,0-13.45,2.67c0,.08.09.16.12.24l.18.39c.05.13.1.25.14.39a6.86,6.86,0,0,1,.38,2.28,7,7,0,0,1-3,5.76H299V995.13a7,7,0,0,0-5.76-3,6.84,6.84,0,0,0-2.27.38c-.14,0-.26.1-.4.15l-.38.17-.24.12a6.81,6.81,0,0,1-2.67.54,7,7,0,1,1,2.91-13.35l.15.06a5.93,5.93,0,0,0,.63.26,7.11,7.11,0,0,0,2.27.38,7,7,0,0,0,5.76-3V958h21.07a6.94,6.94,0,0,0,3-5.76,6.84,6.84,0,0,0-.38-2.27c0-.14-.09-.27-.14-.4l-.18-.38c0-.08-.08-.16-.12-.25a7,7,0,1,1,13.45-2.67,6.85,6.85,0,0,1-.63,2.91h0s-.05.1-.07.14a5,5,0,0,0-.25.64,6.84,6.84,0,0,0-.38,2.27,6.94,6.94,0,0,0,3,5.76h21.45v19.77a7,7,0,0,0,5.76,3,7.11,7.11,0,0,0,2.27-.38l.4-.15.38-.17L368,980a7,7,0,0,1,9.65,6.47Z"/><rect class="cls-4" x="299.01" y="119.79" width="114.99" height="779.03"/><path class="cls-7" d="M138.11,986.45a7,7,0,0,1-9.9,6.35l-.14-.07c-.21-.09-.42-.18-.64-.25a6.84,6.84,0,0,0-2.27-.38,7,7,0,0,0-5.76,3v22.76H97.94a7,7,0,0,0-3,5.76,6.85,6.85,0,0,0,.39,2.27c0,.14.09.26.14.4l.17.38c0,.08.09.16.13.24a7,7,0,1,1-13,5.19,6.81,6.81,0,0,1-.48-2.52,7.06,7.06,0,0,1,.62-2.91h0l.07-.14c.09-.21.18-.42.25-.64a6.84,6.84,0,0,0,.38-2.27,7,7,0,0,0-3-5.76H59.52V995.13a7,7,0,0,1,5.76-3,6.9,6.9,0,0,1,2.28.38,5.9,5.9,0,0,1,.63.25l.15.07a7,7,0,0,0,9.9-6.35A7,7,0,0,0,68.58,980l-.24.13-.39.17-.39.15a7.17,7.17,0,0,1-2.28.38,7,7,0,0,1-5.76-3V958H80.59a7,7,0,0,0,3-5.76,6.84,6.84,0,0,0-.38-2.27,2.74,2.74,0,0,0-.15-.4l-.17-.38L82.8,949a6.77,6.77,0,0,1-.53-2.67,7,7,0,0,1,14,0,6.85,6.85,0,0,1-.63,2.91h0l-.06.14a5,5,0,0,0-.25.64,6.85,6.85,0,0,0-.39,2.27,7,7,0,0,0,3,5.76H119.4v19.77a7,7,0,0,0,5.76,3,7.11,7.11,0,0,0,2.27-.38l.4-.15.38-.17.24-.13a7,7,0,0,1,9.66,6.47Z"/><path class="cls-4" d="M358.89,1017.89V1072H299v-54.13h21.07a7,7,0,0,0,3-5.76,6.86,6.86,0,0,0-.38-2.28c0-.14-.09-.26-.14-.39l-.18-.39c0-.08-.08-.16-.12-.24a7,7,0,1,1,13.45-2.67,6.91,6.91,0,0,1-.63,2.91,1,1,0,0,0-.07.15,4.35,4.35,0,0,0-.25.63,6.86,6.86,0,0,0-.38,2.28,7,7,0,0,0,3,5.76Z"/><path class="cls-4" d="M407.38,372.29v16.17a6.23,6.23,0,0,1-.57.7V372.29Z"/><path class="cls-4" d="M407.38,402.63v18.61h-.57V401.93A6.23,6.23,0,0,1,407.38,402.63Z"/><path class="cls-4" d="M119.4,1017.89V1072H59.52v-54.13H80.59a7,7,0,0,1,3,5.76,6.84,6.84,0,0,1-.38,2.27c-.07.22-.16.43-.25.64l-.07.14h0a7.06,7.06,0,0,0-.62,2.91,6.81,6.81,0,0,0,.48,2.52,7,7,0,1,0,13-5.19c0-.08-.08-.16-.13-.24l-.17-.38c0-.14-.1-.26-.14-.4a6.85,6.85,0,0,1-.39-2.27,7,7,0,0,1,3-5.76Z"/><path class="cls-7" d="M95.8,1032.13a7,7,0,0,1-13,0Z"/><path class="cls-3" d="M257.86,986.45a7,7,0,0,1-9.9,6.35h0l-.14-.07a5.9,5.9,0,0,0-.63-.25,6.9,6.9,0,0,0-2.28-.38,7,7,0,0,0-5.76,3v22.76H179.27V995.13a7,7,0,0,1,5.76-3,6.84,6.84,0,0,1,2.27.38,6.08,6.08,0,0,1,.64.25l.14.07h0a6.88,6.88,0,0,0,2.91.63A7,7,0,1,0,188.33,980l-.25.13-.38.17-.4.15a7.11,7.11,0,0,1-2.27.38,7,7,0,0,1-5.76-3V958h21.07a7,7,0,0,0,3-5.76A6.6,6.6,0,0,0,203,950c0-.14-.09-.27-.14-.4l-.17-.38c0-.08-.09-.16-.13-.25a7,7,0,1,1,12.83.24h0l-.07.14c-.09.21-.18.42-.25.64a6.84,6.84,0,0,0-.38,2.27,7,7,0,0,0,3,5.76h21.45v19.77a7,7,0,0,0,5.76,3,7.17,7.17,0,0,0,2.28-.38l.39-.15.38-.17.25-.13a7,7,0,0,1,9.66,6.47Z"/><path class="cls-4" d="M198,986.45a7,7,0,0,1-7,7,6.88,6.88,0,0,1-2.91-.63h0l-.14-.07a6.08,6.08,0,0,0-.64-.25,6.84,6.84,0,0,0-2.27-.38,7,7,0,0,0-5.76,3v22.76H119.4V995.13a7,7,0,0,1,5.76-3,6.84,6.84,0,0,1,2.27.38c.22.07.43.16.64.25l.14.07a7,7,0,0,0,9.9-6.35,7,7,0,0,0-9.66-6.47l-.24.13-.38.17-.4.15a7.11,7.11,0,0,1-2.27.38,7,7,0,0,1-5.76-3V958h21.06a6.94,6.94,0,0,0,3-5.76,6.84,6.84,0,0,0-.38-2.27c0-.14-.09-.27-.14-.4l-.18-.38c0-.08-.08-.16-.12-.25a7,7,0,1,1,13.45-2.67,6.85,6.85,0,0,1-.63,2.91h0l-.07.14c-.09.21-.18.42-.25.64a6.84,6.84,0,0,0-.38,2.27,6.94,6.94,0,0,0,3,5.76h21.45v19.77a7,7,0,0,0,5.76,3,7.11,7.11,0,0,0,2.27-.38l.4-.15.38-.17.25-.13a7,7,0,0,1,9.65,6.47Z"/><path class="cls-4" d="M280.3,986.46a7,7,0,0,0,7,7,6.81,6.81,0,0,0,2.67-.54l.24-.12.38-.17c.14,0,.26-.11.4-.15a6.84,6.84,0,0,1,2.27-.38,7,7,0,0,1,5.76,3v22.76H239.14V995.13a7,7,0,0,1,5.76-3,6.9,6.9,0,0,1,2.28.38,5.9,5.9,0,0,1,.63.25l.14.07h0a7,7,0,0,0,9.9-6.35A7,7,0,0,0,248.2,980l-.25.13-.38.17-.39.15a7.17,7.17,0,0,1-2.28.38,7,7,0,0,1-5.76-3V958h21.07a7,7,0,0,1,3,5.76,6.86,6.86,0,0,1-.38,2.28,5.9,5.9,0,0,1-.25.63l-.07.15h0a7.06,7.06,0,0,0-.62,2.91,7,7,0,1,0,13.45-2.67,1.83,1.83,0,0,0-.13-.24c-.06-.13-.12-.26-.17-.39s-.1-.25-.14-.39a6.62,6.62,0,0,1-.39-2.28,7,7,0,0,1,3-5.76H299v19.77a7,7,0,0,1-5.76,3,7.11,7.11,0,0,1-2.27-.38,5.93,5.93,0,0,1-.63-.26l-.15-.06a7,7,0,0,0-9.9,6.35Z"/></svg>