<svg id="Слой_1" data-name="Слой 1" xmlns="http://www.w3.org/2000/svg" viewBox="0 0 75.29 111.59"><defs><style>.cls-1{fill:#f9ad1d;}</style></defs><path class="cls-1" d="M69.58,91.34a1.09,1.09,0,0,0,.89.47,1,1,0,0,0,.35-.06l.06,0,.06,0,0,0a1.07,1.07,0,0,1,.41-.08,1.08,1.08,0,1,1,0,2.15,1.13,1.13,0,0,1-.45-.09h0l-.1,0a1,1,0,0,0-.35-.06,1.08,1.08,0,0,0-.89.46v6.55a1.09,1.09,0,0,0,.89.47,1,1,0,0,0,.35-.06l.06,0,.06,0,0,0a1.08,1.08,0,0,1,1.49,1A1.08,1.08,0,0,1,71.39,103a1,1,0,0,1-.45-.1h0l-.1,0a1.34,1.34,0,0,0-.35,0,1.08,1.08,0,0,0-.89.46v3.3h-3a1.08,1.08,0,0,1-.47-.88,1,1,0,0,1,.06-.35.69.69,0,0,0,0-.1v0a1.14,1.14,0,0,0,.1-.45,1.08,1.08,0,1,0-2.15,0,1.15,1.15,0,0,0,.08.41s0,0,0,0a.14.14,0,0,1,0,.06l0,.06a1,1,0,0,1,.06.35,1.08,1.08,0,0,1-.47.88h-3.5v-3.3a1.08,1.08,0,0,0-.89-.46,1.34,1.34,0,0,0-.35,0l-.06,0-.06,0,0,0a1.11,1.11,0,0,1-.41.08,1.08,1.08,0,1,1,0-2.15,1,1,0,0,1,.45.1h0l.1,0a1,1,0,0,0,.35.06,1.09,1.09,0,0,0,.89-.47V94a1.05,1.05,0,0,1,.88-.46,1,1,0,0,1,.35.06l.1,0h0a1.13,1.13,0,0,0,.45.09,1.08,1.08,0,1,0,0-2.15,1.15,1.15,0,0,0-.41.08l0,0-.06,0-.06,0a1,1,0,0,1-.35.06,1.06,1.06,0,0,1-.88-.47V88.1h-3a1.07,1.07,0,0,0-.46.88,1.36,1.36,0,0,0,0,.36l0,.06s0,0,0,0l0,0a1,1,0,0,1,.08.41,1.08,1.08,0,1,1-2.15,0,1.14,1.14,0,0,1,.1-.45v0a.36.36,0,0,0,0-.09,1,1,0,0,0,.06-.36,1.08,1.08,0,0,0-.47-.88h-3.5v3.24a1.08,1.08,0,0,0,.88.47,1,1,0,0,0,.35-.06l.07,0,0,0,0,0A1.15,1.15,0,0,1,53,91.6a1.08,1.08,0,1,1,0,2.15,1.13,1.13,0,0,1-.45-.09h0l-.1,0a1,1,0,0,0-.35-.06,1.07,1.07,0,0,0-.88.46v6.55A1.08,1.08,0,0,0,52,101a1,1,0,0,0,.35-.06l.07,0,0,0,0,0a1.15,1.15,0,0,1,.41-.08A1.08,1.08,0,1,1,53,103a1,1,0,0,1-.45-.1h0l-.1,0a1.23,1.23,0,0,0-.35,0,1.07,1.07,0,0,0-.88.46v3.3h-3a1.07,1.07,0,0,1-.46-.88,1,1,0,0,1,.06-.35.3.3,0,0,1,0-.1s0,0,0,0a1.13,1.13,0,0,0,.09-.45,1.08,1.08,0,1,0-2.15,0,1.15,1.15,0,0,0,.08.41l0,0,0,.06s0,0,0,.06a1,1,0,0,1,.06.35,1.08,1.08,0,0,1-.47.88h-3.5v-3.3a1.07,1.07,0,0,0-.89-.46,1.34,1.34,0,0,0-.35,0l-.06,0-.06,0,0,0a1.07,1.07,0,1,1-.41-2.07,1,1,0,0,1,.45.1h0l.1,0A1,1,0,0,0,41,101a1.08,1.08,0,0,0,.89-.47V94a1.07,1.07,0,0,1,.89-.46,1,1,0,0,1,.35.06l.09,0h0a1,1,0,0,0,.44.09,1.08,1.08,0,1,0,0-2.15,1.15,1.15,0,0,0-.41.08l0,0-.06,0-.06,0a1,1,0,0,1-.35.06,1.08,1.08,0,0,1-.89-.47V84.79a1.07,1.07,0,0,0-.89-.46,1,1,0,0,0-.35.06l-.06,0-.06,0,0,0a1.08,1.08,0,1,1-.41-2.08,1.1,1.1,0,0,1,.45.1h0l.1,0a1,1,0,0,0,.35.06,1.06,1.06,0,0,0,.89-.47V75.58a1.06,1.06,0,0,1,.89-.47,1,1,0,0,1,.35.06l.09,0h0a1,1,0,0,0,.44.09,1.07,1.07,0,0,0,.9-.47,1.62,1.62,0,0,0,.1-.18,1.16,1.16,0,0,0,.08-.42.65.65,0,0,0,0-.2,1.05,1.05,0,0,0,0-.19,1.18,1.18,0,0,0-.24-.37l-.08-.07a1,1,0,0,0-.17-.12l-.19-.08a1.2,1.2,0,0,0-.33,0,1.15,1.15,0,0,0-.41.08l0,0-.06,0-.06,0a1,1,0,0,1-.35.06,1.07,1.07,0,0,1-.89-.46V66.36a1.08,1.08,0,0,1,.89-.47,1,1,0,0,1,.35.06l.09,0h0a1.05,1.05,0,0,0,.44.1,1.08,1.08,0,1,0,0-2.15,1,1,0,0,0-.41.08h0l-.06,0-.06,0a1,1,0,0,1-.35.06,1.07,1.07,0,0,1-.89-.46V60.44h3.5a1.08,1.08,0,0,0,.47-.88,1,1,0,0,0-.06-.35.64.64,0,0,1,0-.07l0,0a.05.05,0,0,0,0,0,1.15,1.15,0,0,1-.08-.41,1.08,1.08,0,1,1,2.15,0,1.13,1.13,0,0,1-.09.45s0,0,0,0a.3.3,0,0,0,0,.1,1,1,0,0,0-.06.35,1.07,1.07,0,0,0,.46.88h3v3.25a1.07,1.07,0,0,0,.88.46,1,1,0,0,0,.35-.06l.07,0,0,0h0A1,1,0,0,1,53,64a1.08,1.08,0,1,1,0,2.15,1.14,1.14,0,0,1-.45-.1h0l-.1,0a1,1,0,0,0-.35-.06,1.08,1.08,0,0,0-.88.47v6.55a1.07,1.07,0,0,0,.88.46,1,1,0,0,0,.35-.06l.07,0,0,0a.05.05,0,0,0,0,0,1.15,1.15,0,0,1,.41-.08,1.08,1.08,0,1,1,0,2.15,1.13,1.13,0,0,1-.45-.09h0l-.1,0a1,1,0,0,0-.35-.06,1.05,1.05,0,0,0-.88.47v3.3h3.5a1.08,1.08,0,0,1,.47.89,1,1,0,0,1-.06.35.36.36,0,0,1,0,.09v0a1.1,1.1,0,0,0-.1.45,1.08,1.08,0,0,0,2.15,0,1,1,0,0,0-.08-.42l0,0s0,0,0-.06l0-.06a1.34,1.34,0,0,1,0-.35,1.07,1.07,0,0,1,.46-.89h3v-3.3a1.07,1.07,0,0,0-.89-.47,1,1,0,0,0-.35.06l-.06,0-.06,0,0,0a1.11,1.11,0,0,1-.41.08,1.08,1.08,0,1,1,0-2.15,1.13,1.13,0,0,1,.45.09h0l.1,0a1,1,0,0,0,.35.06,1.08,1.08,0,0,0,.89-.46V66.36a1.06,1.06,0,0,1,.88-.47,1,1,0,0,1,.35.06l.1,0h0a1.14,1.14,0,0,0,.45.1,1.08,1.08,0,1,0,0-2.15,1,1,0,0,0-.41.08h0l-.06,0-.06,0a1,1,0,0,1-.35.06,1.05,1.05,0,0,1-.88-.46V60.44h3.5a1.09,1.09,0,0,1,.47.89,1,1,0,0,1-.06.35l0,.1v0h0a1,1,0,0,0-.1.45,1.08,1.08,0,0,0,2.15,0,.91.91,0,0,0-.08-.41l0,0a.14.14,0,0,1,0-.06l0-.06a1,1,0,0,1-.06-.35,1.09,1.09,0,0,1,.47-.89h3v3.25a1.08,1.08,0,0,0,.89.46,1,1,0,0,0,.35-.06l.06,0,.06,0h0a.91.91,0,0,1,.41-.08,1.08,1.08,0,1,1,0,2.15,1.14,1.14,0,0,1-.45-.1h0l-.1,0a1,1,0,0,0-.35-.06,1.09,1.09,0,0,0-.89.47v6.55a1.07,1.07,0,0,1-.88.46,1,1,0,0,1-.35-.06l-.1,0h0a1.13,1.13,0,0,0-.45-.09,1.08,1.08,0,1,0,0,2.15,1.15,1.15,0,0,0,.41-.08.05.05,0,0,1,0,0l.06,0,.06,0a1,1,0,0,1,.35-.06,1.05,1.05,0,0,1,.88.47v6.54a1.07,1.07,0,0,0,.89.47,1,1,0,0,0,.35-.06l.06,0,.06,0,0,0a1.07,1.07,0,0,1,.41-.08,1.08,1.08,0,1,1,0,2.15,1.13,1.13,0,0,1-.45-.09h0l-.1,0a1,1,0,0,0-.35-.06,1.08,1.08,0,0,0-.89.46Z"/><path class="cls-1" d="M32.71,84.79a1.07,1.07,0,0,1,.89-.46,1,1,0,0,1,.35.06.11.11,0,0,1,.07,0h0a1.1,1.1,0,0,0,.45.09,1.08,1.08,0,1,0-.41-2.07l0,0-.06,0-.06,0a1,1,0,0,1-.35.06,1.06,1.06,0,0,1-.89-.47V78.88h-3a1.08,1.08,0,0,0-.47.89,1,1,0,0,0,.06.35s0,0,0,.06l0,.06,0,0a1.16,1.16,0,0,1,.08.42,1.08,1.08,0,0,1-2.15,0,1.1,1.1,0,0,1,.09-.45h0a0,0,0,0,1,0,0l0-.09a1,1,0,0,0,.06-.35,1.07,1.07,0,0,0-.46-.89H20.45A1.08,1.08,0,0,1,20,78a1,1,0,0,1,.06-.35,1,1,0,0,0,0-.1,0,0,0,0,0,0,0h0a1.1,1.1,0,0,0,.1-.45,1.13,1.13,0,0,0-.05-.32,1.54,1.54,0,0,0-.08-.19.66.66,0,0,0-.12-.17l-.07-.08a1.08,1.08,0,0,0-1.84.76,1.17,1.17,0,0,0,.09.42l0,0a.14.14,0,0,1,0,.06v0l0,0a1,1,0,0,1,0,.17,1.1,1.1,0,0,1,0,.18,1.08,1.08,0,0,1-.47.89H14.27V69.66H32.71v-3.3a1.08,1.08,0,0,1,.89-.47A1,1,0,0,1,34,66l.1,0h0a1.1,1.1,0,0,0,.45.1,1.08,1.08,0,0,0,0-2.15.91.91,0,0,0-.41.08h0l-.06,0-.06,0a1,1,0,0,1-.35.06,1.07,1.07,0,0,1-.89-.46V60.44h-3a1.09,1.09,0,0,0-.47.89,1,1,0,0,0,.06.35s0,0,0,.06l0,.06s0,0,0,0a1.07,1.07,0,1,1-2.07.41,1.13,1.13,0,0,1,.09-.45h0v0l0-.1a1,1,0,0,0,.06-.35,1.08,1.08,0,0,0-.46-.89H20.45a1.09,1.09,0,0,0-.47.89,1,1,0,0,0,.06.35l0,.06,0,.06s0,0,0,0a1.07,1.07,0,1,1-2.07.41,1,1,0,0,1,.1-.45h0v0l0-.1a.84.84,0,0,0,.07-.35,1.09,1.09,0,0,0-.47-.89H11.23a1.08,1.08,0,0,0-.46.89,1.34,1.34,0,0,0,.05.35l0,.06s0,0,0,.06a.05.05,0,0,1,0,0,1.07,1.07,0,1,1-2.07.41,1.14,1.14,0,0,1,.1-.45h0v0l0-.1A1,1,0,0,0,9,61.33a1.09,1.09,0,0,0-.47-.89H5.06v3.25a1.08,1.08,0,0,1-.89.46,1,1,0,0,1-.35-.06l-.1,0h0A1.13,1.13,0,0,0,3.25,64,1.08,1.08,0,1,0,3.66,66l0,0,.06,0,.06,0a1,1,0,0,1,.35-.06,1.09,1.09,0,0,1,.89.47v6.55a1.08,1.08,0,0,1-.89.46,1,1,0,0,1-.35-.06l-.1,0h0a1.13,1.13,0,0,0-.45-.09,1.08,1.08,0,1,0,.41,2.07l0,0,.06,0,.06,0a1,1,0,0,1,.35-.06,1.07,1.07,0,0,1,.89.47v6.54a1.05,1.05,0,0,0,.88.47,1,1,0,0,0,.35-.06l.06,0,.06,0a.05.05,0,0,0,0,0,1.15,1.15,0,0,1,.41-.08,1.08,1.08,0,1,1,0,2.15,1.13,1.13,0,0,1-.45-.09h0l-.1,0a1,1,0,0,0-.35-.06,1.07,1.07,0,0,0-.88.46V88.1h3.5A1.09,1.09,0,0,0,9,87.21,1,1,0,0,0,9,86.86l0-.06a.14.14,0,0,0,0-.06l0,0A1.07,1.07,0,1,1,11,86.29a1,1,0,0,1-.1.45h0s0,0,0,0a.42.42,0,0,1,0,.1,1.34,1.34,0,0,0-.05.35,1.08,1.08,0,0,0,.46.89h6.55a1.09,1.09,0,0,0,.47-.89.84.84,0,0,0-.07-.35.14.14,0,0,0,0-.06s0,0,0-.06l0,0a1.07,1.07,0,1,1,2.07-.41,1.14,1.14,0,0,1-.1.45h0a0,0,0,0,1,0,0l0,.1a1,1,0,0,0-.06.35,1.09,1.09,0,0,0,.47.89h3v3.24a1.09,1.09,0,0,0,.89.47,1,1,0,0,0,.35-.06l.06,0,.06,0,0,0a1.07,1.07,0,1,1,.41,2.07,1.13,1.13,0,0,1-.45-.09h0l-.1,0a1,1,0,0,0-.35-.06,1.08,1.08,0,0,0-.89.46v3.31h-3a1.09,1.09,0,0,1-.47-.89,1.1,1.1,0,0,1,.1-.45s0,0,0,0a1.14,1.14,0,0,0,.1-.45,1.08,1.08,0,0,0-2.16,0,1.16,1.16,0,0,0,.09.41.08.08,0,0,0,0,0s0,0,0,.06a.14.14,0,0,1,0,.06.84.84,0,0,1,.07.35,1.09,1.09,0,0,1-.47.89H11.23a1.07,1.07,0,0,0-.46.88,1.29,1.29,0,0,0,.05.35l0,.06s0,0,0,.06l0,0a1.15,1.15,0,0,1,.08.41,1.08,1.08,0,1,1-2.15,0,1.14,1.14,0,0,1,.1-.45h0v0a1,1,0,0,0,0-.1A1,1,0,0,0,9,98.2a1.08,1.08,0,0,0-.47-.88H5.06v3.24a1.09,1.09,0,0,1-.89.47,1,1,0,0,1-.35-.06l-.1,0h0a1,1,0,0,0-.45-.1,1.08,1.08,0,1,0,0,2.15,1.07,1.07,0,0,0,.41-.08l0,0,.06,0,.06,0a1.34,1.34,0,0,1,.35,0,1.08,1.08,0,0,1,.89.46v3.3h3.5a1.09,1.09,0,0,1,.47.89,1.1,1.1,0,0,1-.1.45s0,0,0,0h0a1.14,1.14,0,0,0-.1.45,1.08,1.08,0,1,0,2.15,0,1.07,1.07,0,0,0-.08-.41.08.08,0,0,0,0,0s0,0,0-.06l0-.06a1.34,1.34,0,0,1-.05-.35,1.08,1.08,0,0,1,.46-.89h6.55a1.09,1.09,0,0,1,.47.89.84.84,0,0,1-.07.35l0,.1s0,0,0,0h0a1,1,0,0,0-.1.45,1.08,1.08,0,1,0,2.15,0,1.07,1.07,0,0,0-.08-.41s0,0,0,0l0-.06a.14.14,0,0,0,0-.06,1,1,0,0,1-.06-.35,1.09,1.09,0,0,1,.47-.89H27a1.07,1.07,0,0,0,.46-.88,1,1,0,0,0-.06-.35.14.14,0,0,0,0-.06.14.14,0,0,1,0-.06s0,0,0,0a1,1,0,0,1-.09-.41,1.08,1.08,0,0,1,2.16,0,1.14,1.14,0,0,1-.1.45v0a.3.3,0,0,0,0,.1,1,1,0,0,0-.06.35,1.08,1.08,0,0,0,.47.88h3v-3.3a1.07,1.07,0,0,1,.89-.46,1.34,1.34,0,0,1,.35,0l.1,0h0a1,1,0,0,0,.45.1,1.08,1.08,0,1,0-.41-2.07l0,0L34,101,34,101a1,1,0,0,1-.35.06,1.08,1.08,0,0,1-.89-.47V94a1.07,1.07,0,0,1,.89-.46,1,1,0,0,1,.35.06l.1,0h0a1.1,1.1,0,0,0,.45.09,1.08,1.08,0,1,0-.41-2.07l0,0-.06,0-.06,0a1,1,0,0,1-.35.06,1.08,1.08,0,0,1-.89-.47Zm-7.88-.36h0Z"/><path class="cls-1" d="M69.09,26.93a1.07,1.07,0,0,0,.89.47,1,1,0,0,0,.35-.06l.06,0,.06,0,0,0a1.07,1.07,0,1,1,.41,2.07,1.13,1.13,0,0,1-.45-.09h0l-.1,0a1,1,0,0,0-.35-.06,1.08,1.08,0,0,0-.89.46v6.55a1.08,1.08,0,0,0,.89.46,1.34,1.34,0,0,0,.35,0l.06,0,.06,0,0,0a1.07,1.07,0,1,1,.41,2.07,1.14,1.14,0,0,1-.45-.1h0l-.1,0a1,1,0,0,0-.35-.06,1.09,1.09,0,0,0-.89.47v6.54a1.09,1.09,0,0,0,.89.47,1,1,0,0,0,.35-.06l.06,0,.06,0,0,0a1.07,1.07,0,1,1,.41,2.07,1,1,0,0,1-.45-.1h0l-.1,0a1,1,0,0,0-.35-.06,1.08,1.08,0,0,0-.89.46v3.3h-3a1.07,1.07,0,0,1-.46-.88,1,1,0,0,1,.06-.35l0-.1v0a1,1,0,0,0,.1-.45,1.08,1.08,0,1,0-2.15,0,1.15,1.15,0,0,0,.08.41l0,0,0,.06a.14.14,0,0,0,0,.06,1,1,0,0,1,.06.35,1.08,1.08,0,0,1-.47.88H56.84a1.09,1.09,0,0,0-.47.89,1,1,0,0,0,.06.35.14.14,0,0,1,0,.06l0,.06s0,0,0,0a1.07,1.07,0,1,1-2.07.41,1,1,0,0,1,.1-.45h0s0,0,0,0a.42.42,0,0,1,0-.1,1,1,0,0,0,.06-.35,1.09,1.09,0,0,0-.47-.89H47.62a1.08,1.08,0,0,0-.46.89,1,1,0,0,0,.06.35.14.14,0,0,0,0,.06l0,.06a.08.08,0,0,0,0,0,1.07,1.07,0,1,1-2.07.41,1.13,1.13,0,0,1,.09-.45h0v0a.42.42,0,0,0,0-.1,1,1,0,0,0,.06-.35,1.07,1.07,0,0,0-.47-.89h-3.5V48a1.08,1.08,0,0,1,.89-.46,1,1,0,0,1,.35.06l.1,0h0a1,1,0,0,0,.45.1,1.08,1.08,0,1,0-.41-2.07l0,0-.06,0-.06,0a1,1,0,0,1-.35.06,1.09,1.09,0,0,1-.89-.47V38.82a1.09,1.09,0,0,1,.89-.47,1,1,0,0,1,.35.06l.1,0h0a1.14,1.14,0,0,0,.45.1,1.08,1.08,0,1,0-.41-2.07l0,0-.06,0-.06,0a1.34,1.34,0,0,1-.35,0,1.08,1.08,0,0,1-.89-.46V29.6a1.07,1.07,0,0,0-.88-.46,1,1,0,0,0-.35.06l-.06,0-.06,0,0,0a1.15,1.15,0,0,1-.41.08,1.08,1.08,0,1,1,0-2.15,1.13,1.13,0,0,1,.45.09h0s0,0,0,0l.1,0a1,1,0,0,0,.35.06,1.05,1.05,0,0,0,.88-.47V20.39a1.09,1.09,0,0,1,.89-.47,1.35,1.35,0,0,1,.35.06l.1,0s0,0,0,0h0a1,1,0,0,0,.45.1,1.08,1.08,0,1,0-.41-2.07l0,0-.06,0-.06,0a1,1,0,0,1-.35.06,1.09,1.09,0,0,1-.89-.47V11.18a1.09,1.09,0,0,1,.89-.47,1,1,0,0,1,.35.06l.1,0h0a1.14,1.14,0,0,0,.45.1,1.08,1.08,0,0,0,0-2.15.91.91,0,0,0-.41.08.05.05,0,0,0,0,0l-.06,0-.06,0a1,1,0,0,1-.35.06,1.08,1.08,0,0,1-.89-.46V5.26H45a1.07,1.07,0,0,1,.47.89,1,1,0,0,1-.06.35.3.3,0,0,1,0,.1s0,0,0,0h0a1.13,1.13,0,0,0-.09.45,1.08,1.08,0,1,0,2.15,0,1.15,1.15,0,0,0-.08-.41l0,0,0-.06a.14.14,0,0,1,0-.06,1,1,0,0,1-.06-.35,1.08,1.08,0,0,1,.46-.89h3.05V8.51a1.07,1.07,0,0,0,.88.46,1,1,0,0,0,.35-.06l.06,0,.06,0,0,0a1,1,0,0,1,.41-.08,1.08,1.08,0,1,1,0,2.15,1.14,1.14,0,0,1-.45-.1h0l-.1,0a1,1,0,0,0-.35-.06,1.08,1.08,0,0,0-.88.47v6.54a1.08,1.08,0,0,0,.88.47,1,1,0,0,0,.35-.06l.06,0,.06,0,0,0a1.15,1.15,0,0,1,.41-.08,1.08,1.08,0,1,1,0,2.15A1,1,0,0,1,52,20h0l-.1,0a1.28,1.28,0,0,0-.35-.06,1.08,1.08,0,0,0-.88.47v6.54a1.05,1.05,0,0,0,.88.47,1,1,0,0,0,.35-.06l.06,0,.06,0,0,0a1.15,1.15,0,0,1,.41-.08,1.08,1.08,0,1,1,0,2.15,1.13,1.13,0,0,1-.45-.09h0l-.1,0a1,1,0,0,0-.35-.06,1.07,1.07,0,0,0-.88.46v6.55a1.07,1.07,0,0,0,.88.46,1.29,1.29,0,0,0,.35,0l.06,0,.06,0,0,0a1.15,1.15,0,0,1,.41-.08,1.08,1.08,0,1,1,0,2.15,1.14,1.14,0,0,1-.45-.1h0l-.1,0a1,1,0,0,0-.35-.06,1.08,1.08,0,0,0-.88.47v3.3h3.5a1.08,1.08,0,0,0,.47-.89,1,1,0,0,0-.06-.35l0-.06,0-.06s0,0,0,0a1.15,1.15,0,0,1-.08-.41,1.08,1.08,0,1,1,2.15,0,1.05,1.05,0,0,1-.1.44s0,0,0,0l0,.09a1,1,0,0,0-.06.35,1.08,1.08,0,0,0,.47.89h3v-3.3a1.08,1.08,0,0,1,.89-.47,1,1,0,0,1,.35.06l.09,0h0a1.1,1.1,0,0,0,.45.1,1.08,1.08,0,0,0,0-2.15,1.16,1.16,0,0,0-.42.08l0,0-.06,0-.06,0a1.34,1.34,0,0,1-.35,0,1.07,1.07,0,0,1-.89-.46V29.6a1.07,1.07,0,0,0-.89-.46,1,1,0,0,0-.35.06l-.06,0-.06,0,0,0a1.15,1.15,0,0,1-.41.08,1.08,1.08,0,1,1,0-2.15,1,1,0,0,1,.44.09h0l.09,0a1,1,0,0,0,.35.06,1.06,1.06,0,0,0,.89-.47V20.39a1.08,1.08,0,0,1,.89-.47,1.35,1.35,0,0,1,.35.06l.09,0h0a1,1,0,0,0,.45.1,1.08,1.08,0,0,0,0-2.15,1.16,1.16,0,0,0-.42.08l0,0-.06,0-.06,0a1,1,0,0,1-.35.06,1.08,1.08,0,0,1-.89-.47V11.18a1.08,1.08,0,0,0-.89-.47,1,1,0,0,0-.35.06l-.06,0-.06,0,0,0a1.15,1.15,0,0,1-.41.08,1.08,1.08,0,1,1,0-2.15.92.92,0,0,1,.44.1h0l.09,0A1,1,0,0,0,59,9a1.07,1.07,0,0,0,.89-.46V5.26h3.5a1.09,1.09,0,0,1,.47.89,1,1,0,0,1-.06.35.3.3,0,0,1,0,.1v0h0a1.14,1.14,0,0,0-.1.45,1.08,1.08,0,1,0,2.16,0,1,1,0,0,0-.09-.41.08.08,0,0,0,0,0s0,0,0-.06a.14.14,0,0,1,0-.06,1,1,0,0,1-.06-.35,1.08,1.08,0,0,1,.46-.89h3V8.51A1.08,1.08,0,0,0,70,9a1,1,0,0,0,.35-.06l.06,0,.06,0,0,0a.91.91,0,0,1,.41-.08,1.08,1.08,0,0,1,0,2.15,1.14,1.14,0,0,1-.45-.1h0l-.1,0a1,1,0,0,0-.35-.06,1.09,1.09,0,0,0-.89.47v6.54a1.09,1.09,0,0,0,.89.47,1,1,0,0,0,.35-.06l.06,0,.06,0,0,0a1.07,1.07,0,1,1,.41,2.07,1,1,0,0,1-.45-.1h0l-.1,0a1.35,1.35,0,0,0-.35-.06,1.09,1.09,0,0,0-.89.47Z"/><path class="cls-1" d="M34,27.19a1.15,1.15,0,0,0-.41.08l0,0-.06,0-.07,0a.93.93,0,0,1-.34.06,1.06,1.06,0,0,1-.89-.47V20.39a1.08,1.08,0,0,0-.89-.47A1.35,1.35,0,0,0,31,20l-.06,0-.06,0,0,0a1,1,0,0,1-.42.08,1.08,1.08,0,0,1,0-2.15,1.1,1.1,0,0,1,.45.1h0l.1,0a1,1,0,0,0,.35.06,1.08,1.08,0,0,0,.89-.47V11.18a1.08,1.08,0,0,1,.89-.47.93.93,0,0,1,.34.06l.1,0h0a1.05,1.05,0,0,0,.44.1,1.08,1.08,0,1,0,0-2.15,1,1,0,0,0-.41.08l0,0-.06,0-.07,0a.93.93,0,0,1-.34.06,1.07,1.07,0,0,1-.89-.46V5.26h-3a1.09,1.09,0,0,0-.47.89,1,1,0,0,0,.06.35s0,0,0,.06l0,.06s0,0,0,0a1.15,1.15,0,0,1,.08.41,1.08,1.08,0,1,1-2.15,0,1.13,1.13,0,0,1,.09-.45h0v0l0-.1a1.34,1.34,0,0,0,0-.35,1.08,1.08,0,0,0-.46-.89H20a1.08,1.08,0,0,0-.46.89,1,1,0,0,0,.06.35l0,.06,0,.06,0,0a1.15,1.15,0,0,1,.08.41,1.08,1.08,0,0,1-2.16,0,1.14,1.14,0,0,1,.1-.45h0s0,0,0,0a.3.3,0,0,0,0-.1,1,1,0,0,0,.06-.35,1.07,1.07,0,0,0-.47-.89H10.77a1.05,1.05,0,0,1-.46-.88,1.34,1.34,0,0,1,0-.35,1,1,0,0,1,0-.1s0,0,0,0a1,1,0,0,0,.1-.45,1.08,1.08,0,1,0-2.15,0,1.15,1.15,0,0,0,.08.41s0,0,0,0a.14.14,0,0,1,0,.06l0,.06a1,1,0,0,1,.06.35,1.06,1.06,0,0,1-.47.88H4.6V8.51A1.07,1.07,0,0,0,5.48,9a1,1,0,0,0,.36-.06l.06,0,0,0,0,0a1,1,0,0,1,.41-.08,1.08,1.08,0,1,1,0,2.15,1.14,1.14,0,0,1-.45-.1h0l-.09,0a1,1,0,0,0-.36-.06,1.08,1.08,0,0,0-.88.47v6.54a1.08,1.08,0,0,0,.88.47,1,1,0,0,0,.36-.06l.06,0,0,0,0,0A1.15,1.15,0,0,1,6.4,18a1.13,1.13,0,0,1,.32.05.84.84,0,0,1,.2.08l.17.11.07.08a1,1,0,0,1,.32.76A1.07,1.07,0,0,1,6.4,20.13,1,1,0,0,1,6,20h0l-.09,0a1.36,1.36,0,0,0-.36-.06,1.08,1.08,0,0,0-.88.47v6.54a1.07,1.07,0,0,1-.89.47,1,1,0,0,1-.35-.06l-.1,0h0a1.13,1.13,0,0,0-.45-.09,1.08,1.08,0,1,0,.41,2.07l0,0,.06,0,.06,0a1,1,0,0,1,.35-.06,1.08,1.08,0,0,1,.89.46v6.55a1.07,1.07,0,0,0,.88.46,1.36,1.36,0,0,0,.36,0l.06,0,0,0,0,0a1.15,1.15,0,0,1,.41-.08,1.08,1.08,0,1,1,0,2.15,1.14,1.14,0,0,1-.45-.1h0l-.09,0a1,1,0,0,0-.36-.06,1.08,1.08,0,0,0-.88.47v6.54a1.09,1.09,0,0,1-.89.47,1,1,0,0,1-.35-.06l-.1,0h0a1.14,1.14,0,0,0-.45-.1,1.08,1.08,0,1,0,.41,2.07l0,0,.06,0,.06,0a1,1,0,0,1,.35-.06A1.08,1.08,0,0,1,4.6,48v3.3H8.1a1.08,1.08,0,0,0,.47-.88,1,1,0,0,0-.06-.35l0-.06a.14.14,0,0,0,0-.06l0,0a1.15,1.15,0,0,1-.08-.41,1.08,1.08,0,1,1,2.15,0,1,1,0,0,1-.1.45v0a1,1,0,0,0,0,.1,1.34,1.34,0,0,0,0,.35,1.07,1.07,0,0,0,.46.88h3V48a1.07,1.07,0,0,1,.89-.46,1,1,0,0,1,.35.06l.1,0s0,0,0,0h0a1,1,0,0,0,.45.1,1.08,1.08,0,1,0-.41-2.07l0,0-.06,0-.06,0a1,1,0,0,1-.35.06,1.08,1.08,0,0,1-.89-.47V38.82a1.08,1.08,0,0,1,.89-.47,1,1,0,0,1,.35.06l.1,0h0a1.14,1.14,0,0,0,.45.1,1.08,1.08,0,1,0-.41-2.07l0,0-.06,0-.06,0a1.34,1.34,0,0,1-.35,0,1.07,1.07,0,0,1-.89-.46V32.91h3.5a1.05,1.05,0,0,1,.47.88,1,1,0,0,1-.06.35.3.3,0,0,1,0,.1v0a1.14,1.14,0,0,0-.1.45,1.08,1.08,0,0,0,2.16,0,1.11,1.11,0,0,0-.08-.41.08.08,0,0,1,0,0l0-.06,0-.06a1,1,0,0,1-.06-.35,1.07,1.07,0,0,1,.46-.88h6.55a1.07,1.07,0,0,1,.46.88,1.29,1.29,0,0,1,0,.35l0,.1v0h0a1.13,1.13,0,0,0-.09.45,1.08,1.08,0,1,0,2.15,0,1.11,1.11,0,0,0-.08-.41l0,0,0-.06s0,0,0-.06a1,1,0,0,1-.06-.35,1.08,1.08,0,0,1,.47-.88h3V29.6a1.07,1.07,0,0,1,.89-.46.93.93,0,0,1,.34.06l.1,0h0a1,1,0,0,0,.44.09,1.08,1.08,0,1,0,0-2.15ZM23,17.72a1.09,1.09,0,0,1-.89.47,1,1,0,0,1-.35-.06l-.1,0h0a1.14,1.14,0,0,0-.45-.1,1.08,1.08,0,1,0,0,2.15.94.94,0,0,0,.41-.08l0,0,.06,0,.06,0a1.35,1.35,0,0,1,.35-.06,1.09,1.09,0,0,1,.89.47v3.3H20a1.08,1.08,0,0,0-.46.89,1,1,0,0,0,.06.35l0,.06,0,.06,0,0a1.08,1.08,0,1,1-2.08.41,1.14,1.14,0,0,1,.1-.45v0l0-.1a1,1,0,0,0,.06-.35,1.07,1.07,0,0,0-.47-.89h-3.5v-3.3a1.08,1.08,0,0,1,.89-.47,1.35,1.35,0,0,1,.35.06l.1,0h0a1,1,0,0,0,.45.1,1.08,1.08,0,1,0-.41-2.07l0,0-.06,0-.06,0a1,1,0,0,1-.35.06,1.08,1.08,0,0,1-.89-.47V14.48H23Z"/></svg>