<svg id="Слой_1" data-name="Слой 1" xmlns="http://www.w3.org/2000/svg" viewBox="0 0 723.57 266.42"><defs><style>.cls-1{fill:#f9ad1d;}</style></defs><path class="cls-1" d="M702.6,174a5.31,5.31,0,0,0,4.38,2.3,5.18,5.18,0,0,0,1.72-.29,2.65,2.65,0,0,0,.3-.11l.29-.13.19-.09a5.31,5.31,0,0,1,7.33,4.9,5.3,5.3,0,0,1-5.3,5.31,5.25,5.25,0,0,1-2.21-.48h0l-.1-.05a2.92,2.92,0,0,0-.49-.19,4.94,4.94,0,0,0-1.72-.3,5.31,5.31,0,0,0-4.38,2.3v32.29a5.31,5.31,0,0,0,4.38,2.3,4.94,4.94,0,0,0,1.72-.3l.3-.1.29-.14.19-.09a5.31,5.31,0,0,1,7.33,4.9,5.3,5.3,0,0,1-5.3,5.31,5.25,5.25,0,0,1-2.21-.48h0l-.1-.05a4.14,4.14,0,0,0-.49-.19,5.18,5.18,0,0,0-1.72-.29,5.31,5.31,0,0,0-4.38,2.3v16.28h-15a5.29,5.29,0,0,1-2.3-4.37,5.23,5.23,0,0,1,.29-1.73c.06-.17.12-.32.19-.48l.05-.11a5.25,5.25,0,0,0,.48-2.21,5.31,5.31,0,1,0-10.21,2,1.62,1.62,0,0,0,.1.18c0,.1.09.2.12.29l.12.3a5.23,5.23,0,0,1,.29,1.73,5.29,5.29,0,0,1-2.3,4.37H657.15V232.58a5.29,5.29,0,0,0-4.37-2.3,5.19,5.19,0,0,0-1.73.29l-.3.11-.29.13-.19.09a5.2,5.2,0,0,1-2,.4,5.31,5.31,0,1,1,2.21-10.13l.11.05a2.53,2.53,0,0,0,.48.19,5,5,0,0,0,1.73.3,5.29,5.29,0,0,0,4.37-2.3V187.12a5.3,5.3,0,0,1,4.37-2.3,5,5,0,0,1,1.73.3,2.53,2.53,0,0,1,.48.19l.11.05h0a5.22,5.22,0,0,0,2.21.48,5.31,5.31,0,0,0,0-10.61,5.25,5.25,0,0,0-2,.4l-.19.09-.29.13a2.65,2.65,0,0,1-.3.11,5.19,5.19,0,0,1-1.73.29,5.3,5.3,0,0,1-4.37-2.3V158h-15a5.31,5.31,0,0,0-2.29,4.37,5.45,5.45,0,0,0,.28,1.73l.12.3c0,.09.08.19.13.29l.09.18a5.31,5.31,0,1,1-9.73-.18.54.54,0,0,0,0-.11,2.53,2.53,0,0,0,.19-.48,5,5,0,0,0,.3-1.73A5.29,5.29,0,0,0,629,158H611.7v16a5.29,5.29,0,0,0,4.37,2.3,5.19,5.19,0,0,0,1.73-.29l.3-.11.29-.13.19-.09a5.2,5.2,0,0,1,2-.4,5.31,5.31,0,1,1-2.21,10.13l-.11-.05a2.53,2.53,0,0,0-.48-.19,5,5,0,0,0-1.73-.3,5.29,5.29,0,0,0-4.37,2.3v32.29a5.29,5.29,0,0,0,4.37,2.3,5,5,0,0,0,1.73-.3l.3-.1.29-.14.19-.09a5.2,5.2,0,0,1,2-.4,5.31,5.31,0,1,1-2.21,10.13l-.11-.05a3.43,3.43,0,0,0-.48-.19,5.19,5.19,0,0,0-1.73-.29,5.29,5.29,0,0,0-4.37,2.3v16.28h-15a5.28,5.28,0,0,1-2.29-4.37,5.5,5.5,0,0,1,.28-1.73,4,4,0,0,1,.2-.48.54.54,0,0,1,0-.11,5.25,5.25,0,0,0,.48-2.21,5.31,5.31,0,1,0-10.21,2l.09.18c.05.1.09.2.13.29s.08.2.11.3a5.23,5.23,0,0,1,.29,1.73,5.29,5.29,0,0,1-2.3,4.37H566.25V232.58a5.31,5.31,0,0,0-4.38-2.3,5.18,5.18,0,0,0-1.72.29,2.65,2.65,0,0,0-.3.11l-.29.13-.19.09A5.31,5.31,0,0,1,552,226a5.3,5.3,0,0,1,5.3-5.31,5.25,5.25,0,0,1,2.21.48h0l.1.05a2.92,2.92,0,0,0,.49.19,4.94,4.94,0,0,0,1.72.3,5.31,5.31,0,0,0,4.38-2.3V187.12a5.29,5.29,0,0,1,4.37-2.3,5,5,0,0,1,1.73.3,3.19,3.19,0,0,1,.48.19l.11.05a5.25,5.25,0,0,0,2.21.48,5.31,5.31,0,1,0-2-10.21l-.18.09-.29.13-.3.11a5.23,5.23,0,0,1-1.73.29,5.29,5.29,0,0,1-4.37-2.3V141.67a5.31,5.31,0,0,0-4.38-2.3,5.18,5.18,0,0,0-1.72.29l-.3.11-.29.13-.19.1a5.3,5.3,0,1,1,.18-9.74h0l.1,0,.49.19a5.18,5.18,0,0,0,1.72.29,5.31,5.31,0,0,0,4.38-2.3V96.22a5.29,5.29,0,0,1,4.37-2.3,5.23,5.23,0,0,1,1.73.29l.48.19.11,0h0a5.34,5.34,0,0,0,6.61-1.87,5.56,5.56,0,0,0,.49-.9,5.23,5.23,0,0,0,.42-2.06,4.71,4.71,0,0,0-.1-1,5.06,5.06,0,0,0-.27-.94,5.28,5.28,0,0,0-1.19-1.81,3.22,3.22,0,0,0-.38-.35,4.78,4.78,0,0,0-.84-.57,4.66,4.66,0,0,0-.95-.4,5.17,5.17,0,0,0-1.58-.24,5.29,5.29,0,0,0-2,.4l-.18.1-.29.13-.3.11a5.23,5.23,0,0,1-1.73.29,5.29,5.29,0,0,1-4.37-2.3V50.77a5.29,5.29,0,0,1,4.37-2.3,5.23,5.23,0,0,1,1.73.29,4.78,4.78,0,0,1,.48.19l.11,0a5.25,5.25,0,0,0,2.21.48,5.31,5.31,0,1,0-2-10.21l-.18.09-.29.14-.3.1a5,5,0,0,1-1.73.3,5.29,5.29,0,0,1-4.37-2.3v-16h17.27a5.29,5.29,0,0,0,2.3-4.37,5.19,5.19,0,0,0-.29-1.73c0-.1-.07-.2-.11-.3s-.08-.19-.13-.29l-.09-.19a5.24,5.24,0,0,1-.41-2,5.31,5.31,0,1,1,10.14,2.21.54.54,0,0,0,0,.11,3.45,3.45,0,0,0-.2.48,5.45,5.45,0,0,0-.28,1.73,5.28,5.28,0,0,0,2.29,4.37h15v16a5.29,5.29,0,0,0,4.37,2.3,5,5,0,0,0,1.73-.3l.3-.1.29-.14.19-.09a5.2,5.2,0,0,1,2-.4A5.31,5.31,0,1,1,618.39,49l-.11,0a3.43,3.43,0,0,0-.48-.19,5.19,5.19,0,0,0-1.73-.29,5.29,5.29,0,0,0-4.37,2.3V83.05a5.29,5.29,0,0,0,4.37,2.3,5.19,5.19,0,0,0,1.73-.29l.3-.11.29-.13.19-.1a5.2,5.2,0,0,1,2-.4,5.31,5.31,0,1,1-2.21,10.14h0l-.11,0c-.15-.07-.31-.13-.48-.19a5.19,5.19,0,0,0-1.73-.29,5.29,5.29,0,0,0-4.37,2.3v16.29H629a5.28,5.28,0,0,1,2.3,4.37,5,5,0,0,1-.3,1.73,3.19,3.19,0,0,1-.19.48l0,.11a5.3,5.3,0,1,0,9.73.18l-.09-.18c0-.1-.09-.2-.13-.29l-.12-.3a5.55,5.55,0,0,1-.28-1.73,5.29,5.29,0,0,1,2.29-4.37h15V96.22a5.29,5.29,0,0,0-4.37-2.3,5.19,5.19,0,0,0-1.73.29l-.3.11-.29.13-.19.1a5.2,5.2,0,0,1-2,.4,5.31,5.31,0,1,1,2.21-10.14h0l.11.05c.15.07.31.13.48.19a5.19,5.19,0,0,0,1.73.29,5.29,5.29,0,0,0,4.37-2.3V50.77a5.3,5.3,0,0,1,4.37-2.3,5.19,5.19,0,0,1,1.73.29,3.43,3.43,0,0,1,.48.19l.11,0h0a5.22,5.22,0,0,0,2.21.48,5.31,5.31,0,0,0,0-10.61,5.25,5.25,0,0,0-2,.4l-.19.09-.29.14-.3.1a5,5,0,0,1-1.73.3,5.3,5.3,0,0,1-4.37-2.3v-16h17.28a5.3,5.3,0,0,1,2.3,4.37,5.19,5.19,0,0,1-.29,1.73c-.06.17-.12.33-.19.48l0,.11h0a5.21,5.21,0,0,0-.48,2.2,5.31,5.31,0,0,0,10.62,0,5.24,5.24,0,0,0-.4-2l-.1-.19a2.55,2.55,0,0,1-.13-.29c0-.1-.08-.2-.11-.3A5.19,5.19,0,0,1,685.3,26a5.3,5.3,0,0,1,2.3-4.37h15v16A5.31,5.31,0,0,0,707,39.9a4.94,4.94,0,0,0,1.72-.3l.3-.1.29-.14.19-.09a5.25,5.25,0,0,1,2-.4A5.31,5.31,0,1,1,709.3,49h0l-.1,0a4.14,4.14,0,0,0-.49-.19,5.18,5.18,0,0,0-1.72-.29,5.31,5.31,0,0,0-4.38,2.3V83.05a5.29,5.29,0,0,1-4.37,2.3,5.23,5.23,0,0,1-1.73-.29l-.48-.19-.11-.05h0a5.25,5.25,0,0,0-2.21-.48,5.31,5.31,0,1,0,2,10.22l.18-.1.29-.13.3-.11a5.23,5.23,0,0,1,1.73-.29,5.29,5.29,0,0,1,4.37,2.3V128.5a5.31,5.31,0,0,0,4.38,2.3,5.18,5.18,0,0,0,1.72-.29,2.65,2.65,0,0,0,.3-.11l.29-.13.19-.1a5.25,5.25,0,0,1,2-.4,5.31,5.31,0,0,1,0,10.62,5.25,5.25,0,0,1-2.21-.48h0l-.1-.05-.49-.19a5.18,5.18,0,0,0-1.72-.29,5.31,5.31,0,0,0-4.38,2.3Z"/><path class="cls-1" d="M520.79,141.67a5.31,5.31,0,0,1,4.38-2.3,5.18,5.18,0,0,1,1.72.29l.35.14.14,0,.1.05h0a5.25,5.25,0,0,0,2.21.48,5.31,5.31,0,0,0,0-10.62,5.25,5.25,0,0,0-2,.4l-.18.1-.3.13a2.65,2.65,0,0,1-.3.11,5.18,5.18,0,0,1-1.72.29,5.31,5.31,0,0,1-4.38-2.3v-16h-15a5.29,5.29,0,0,0-2.3,4.37,5.23,5.23,0,0,0,.29,1.73c0,.1.07.2.11.3s.08.19.13.29a1.62,1.62,0,0,0,.1.18,5.3,5.3,0,1,1-9.74-.18h0a1.17,1.17,0,0,1,.05-.11c.07-.16.13-.32.19-.48a5.23,5.23,0,0,0,.29-1.73,5.29,5.29,0,0,0-2.3-4.37H460.33a5.32,5.32,0,0,1-2.29-4.38,5.44,5.44,0,0,1,.28-1.72c.06-.17.13-.33.2-.49a.47.47,0,0,1,.05-.1h0a5.25,5.25,0,0,0,.48-2.21,5.17,5.17,0,0,0-.24-1.58,5.3,5.3,0,0,0-.4-1,5.39,5.39,0,0,0-.57-.84c-.11-.13-.23-.26-.35-.38a5.3,5.3,0,0,0-8.65,5.78l.09.19a1.51,1.51,0,0,1,.13.29l.06.15s0,.09.06.15a4.71,4.71,0,0,1,.22.84,6.27,6.27,0,0,1,.07.88,5.31,5.31,0,0,1-2.3,4.38H429.89V67.05h90.9V50.77a5.31,5.31,0,0,1,4.38-2.3,5.18,5.18,0,0,1,1.72.29,4.14,4.14,0,0,1,.49.19l.1,0h0a5.25,5.25,0,0,0,2.21.48,5.31,5.31,0,0,0,0-10.61,5.25,5.25,0,0,0-2,.4l-.19.09-.29.14-.3.1a4.94,4.94,0,0,1-1.72.3,5.31,5.31,0,0,1-4.38-2.3v-16h-15a5.3,5.3,0,0,0-2.3,4.37,5.19,5.19,0,0,0,.29,1.73c0,.1.07.2.11.3a2.55,2.55,0,0,0,.13.29l.1.19a5.24,5.24,0,0,1,.4,2,5.31,5.31,0,0,1-10.62,0,5.21,5.21,0,0,1,.48-2.2h0l.05-.11c.07-.15.13-.31.19-.48a5.19,5.19,0,0,0,.29-1.73,5.3,5.3,0,0,0-2.3-4.37H460.33A5.32,5.32,0,0,0,458,26a5.45,5.45,0,0,0,.28,1.73l.12.3a2.55,2.55,0,0,0,.13.29l.1.19a5.43,5.43,0,0,1,.4,2,5.31,5.31,0,0,1-10.62,0,5.21,5.21,0,0,1,.48-2.2h0a.37.37,0,0,0,.05-.11,2.53,2.53,0,0,0,.19-.48,5,5,0,0,0,.3-1.73,5.3,5.3,0,0,0-2.3-4.37H414.88A5.29,5.29,0,0,0,412.59,26a5.45,5.45,0,0,0,.28,1.73c0,.1.07.2.12.3a2.55,2.55,0,0,0,.13.29c0,.06.06.12.09.19a5.24,5.24,0,0,1,.4,2,5.31,5.31,0,1,1-10.61,0,5.21,5.21,0,0,1,.48-2.2h0a1.17,1.17,0,0,0,0-.11,3.43,3.43,0,0,0,.19-.48A5.19,5.19,0,0,0,404,26a5.3,5.3,0,0,0-2.3-4.37H384.44v16a5.31,5.31,0,0,1-4.38,2.3,4.94,4.94,0,0,1-1.72-.3,2.53,2.53,0,0,1-.48-.19l-.11,0h0a5.25,5.25,0,0,0-2.21-.48,5.31,5.31,0,0,0,0,10.61,5.44,5.44,0,0,0,2-.39l.19-.1.29-.13a2.65,2.65,0,0,1,.3-.11,5.18,5.18,0,0,1,1.72-.29,5.31,5.31,0,0,1,4.38,2.3V83.05a5.31,5.31,0,0,1-4.38,2.3,5.18,5.18,0,0,1-1.72-.29c-.17-.06-.33-.12-.48-.19l-.11-.05h0a5.25,5.25,0,0,0-2.21-.48,5.31,5.31,0,0,0,0,10.62,5.25,5.25,0,0,0,2-.4l.19-.1.29-.13a2.65,2.65,0,0,1,.3-.11,5.18,5.18,0,0,1,1.72-.29,5.31,5.31,0,0,1,4.38,2.3V128.5a5.29,5.29,0,0,0,4.37,2.3,5.23,5.23,0,0,0,1.73-.29l.3-.11.29-.13.18-.1a5.31,5.31,0,1,1-.18,9.74h0l-.11-.05-.48-.19a5.23,5.23,0,0,0-1.73-.29,5.29,5.29,0,0,0-4.37,2.3V158h17.27a5.3,5.3,0,0,0,2.3-4.37,5.19,5.19,0,0,0-.29-1.73,2.65,2.65,0,0,0-.11-.3,2.55,2.55,0,0,0-.13-.29l-.09-.19a5.31,5.31,0,1,1,9.73.18h0a.37.37,0,0,0-.05.11,3.45,3.45,0,0,0-.2.48,5.45,5.45,0,0,0-.28,1.73,5.29,5.29,0,0,0,2.29,4.37h32.29a5.3,5.3,0,0,0,2.3-4.37,5,5,0,0,0-.3-1.73,2.65,2.65,0,0,0-.11-.3,2.55,2.55,0,0,0-.13-.29l-.09-.19a5.31,5.31,0,1,1,9.73.18h0a.37.37,0,0,0-.05.11c-.07.15-.14.31-.2.48a5.45,5.45,0,0,0-.28,1.73,5.32,5.32,0,0,0,2.29,4.37h15v16a5.3,5.3,0,0,0,4.37,2.3,5.19,5.19,0,0,0,1.73-.29,2.65,2.65,0,0,0,.3-.11l.29-.13.19-.09a5.31,5.31,0,0,1,7.33,4.9,5.3,5.3,0,0,1-5.3,5.31,5.22,5.22,0,0,1-2.21-.48h0l-.11-.05a2.53,2.53,0,0,0-.48-.19,5,5,0,0,0-1.73-.3,5.3,5.3,0,0,0-4.37,2.3v16.29h-15A5.31,5.31,0,0,1,458,199a5.45,5.45,0,0,1,.28-1.73c.06-.17.13-.33.2-.48a.54.54,0,0,1,.05-.11,5.32,5.32,0,1,0-9.73-.19l.09.19c.05.1.09.2.13.29s.08.2.11.3a5,5,0,0,1,.3,1.73,5.29,5.29,0,0,1-2.3,4.37H414.88a5.28,5.28,0,0,0-2.29,4.37,5.45,5.45,0,0,0,.28,1.73c0,.1.07.2.12.3a2.55,2.55,0,0,0,.13.29c0,.06.06.12.09.19a5.24,5.24,0,0,1,.4,2,5.31,5.31,0,1,1-10.61,0,5.21,5.21,0,0,1,.48-2.2h0l0-.11a3.43,3.43,0,0,0,.19-.48,5.19,5.19,0,0,0,.29-1.73,5.29,5.29,0,0,0-2.3-4.37H384.44v16a5.31,5.31,0,0,1-4.38,2.3,4.94,4.94,0,0,1-1.72-.3,2.53,2.53,0,0,1-.48-.19l-.11-.05h0a5.25,5.25,0,0,0-2.21-.48,5.31,5.31,0,0,0,0,10.61,5.25,5.25,0,0,0,2-.4l.19-.09.29-.13a2.65,2.65,0,0,1,.3-.11,5.18,5.18,0,0,1,1.72-.29,5.31,5.31,0,0,1,4.38,2.3v16.28h17.27a5.31,5.31,0,0,1,2.3,4.38,5.18,5.18,0,0,1-.29,1.72,3.43,3.43,0,0,1-.19.48,1.17,1.17,0,0,1,0,.11h0a5.3,5.3,0,1,0,9.73.18,1.63,1.63,0,0,1-.09-.19,2.55,2.55,0,0,1-.13-.29,2.68,2.68,0,0,1-.12-.3,5.44,5.44,0,0,1-.28-1.72,5.3,5.3,0,0,1,2.29-4.38h32.29a5.31,5.31,0,0,1,2.3,4.38,4.94,4.94,0,0,1-.3,1.72,2.53,2.53,0,0,1-.19.48.37.37,0,0,1-.05.11h0a5.3,5.3,0,0,0,4.83,7.51,5.3,5.3,0,0,0,5.31-5.3,5.44,5.44,0,0,0-.4-2,1.74,1.74,0,0,1-.1-.19,2.55,2.55,0,0,1-.13-.29l-.12-.3a5.44,5.44,0,0,1-.28-1.72,5.32,5.32,0,0,1,2.29-4.38h32.29a5.29,5.29,0,0,0,2.3-4.37,5.23,5.23,0,0,0-.29-1.73c0-.1-.08-.2-.12-.3s-.08-.19-.12-.29a1.62,1.62,0,0,1-.1-.18,5.31,5.31,0,1,1,9.73.18l0,.11c-.07.16-.13.31-.19.48a5.23,5.23,0,0,0-.29,1.73,5.29,5.29,0,0,0,2.3,4.37h15V232.58a5.31,5.31,0,0,1,4.38-2.3,5.18,5.18,0,0,1,1.72.29,4.14,4.14,0,0,1,.49.19l.1.05h0a5.25,5.25,0,0,0,2.21.48,5.31,5.31,0,0,0,0-10.61,5.25,5.25,0,0,0-2,.4l-.19.09-.29.14-.3.1a4.94,4.94,0,0,1-1.72.3,5.31,5.31,0,0,1-4.38-2.3V187.12a5.31,5.31,0,0,1,4.38-2.3,4.94,4.94,0,0,1,1.72.3,2.92,2.92,0,0,1,.49.19l.1.05h0a5.25,5.25,0,0,0,2.21.48,5.31,5.31,0,0,0,0-10.61,5.25,5.25,0,0,0-2,.4l-.19.09-.29.13a2.65,2.65,0,0,1-.3.11,5.18,5.18,0,0,1-1.72.29,5.31,5.31,0,0,1-4.38-2.3Zm-38.87-1.82.11.05h0l-.11,0-.12-.06Z"/><path class="cls-1" d="M339,128.5a5.31,5.31,0,0,0,4.38,2.3,5.18,5.18,0,0,0,1.72-.29,2.65,2.65,0,0,0,.3-.11l.29-.13.19-.1a5.25,5.25,0,0,1,2-.4,5.31,5.31,0,0,1,0,10.62,5.25,5.25,0,0,1-2.21-.48h0l-.1-.05-.49-.19a5.18,5.18,0,0,0-1.72-.29,5.31,5.31,0,0,0-4.38,2.3V174a5.31,5.31,0,0,0,4.38,2.3,5.18,5.18,0,0,0,1.72-.29,2.65,2.65,0,0,0,.3-.11l.29-.13.19-.09a5.31,5.31,0,0,1,7.33,4.9,5.3,5.3,0,0,1-5.3,5.31,5.25,5.25,0,0,1-2.21-.48h0l-.1-.05a2.92,2.92,0,0,0-.49-.19,4.94,4.94,0,0,0-1.72-.3,5.31,5.31,0,0,0-4.38,2.3v32.29a5.31,5.31,0,0,0,4.38,2.3,4.94,4.94,0,0,0,1.72-.3l.3-.1.29-.14.19-.09a5.31,5.31,0,0,1,7.33,4.9,5.3,5.3,0,0,1-5.3,5.31,5.25,5.25,0,0,1-2.21-.48h0l-.1-.05a4.14,4.14,0,0,0-.49-.19,5.18,5.18,0,0,0-1.72-.29,5.31,5.31,0,0,0-4.38,2.3v16.28H324a5.29,5.29,0,0,1-2.3-4.37,5.23,5.23,0,0,1,.29-1.73c.06-.17.12-.32.19-.48l0-.11a5.25,5.25,0,0,0,.48-2.21,5.31,5.31,0,1,0-10.21,2,1.62,1.62,0,0,0,.1.18c0,.1.09.2.12.29s.09.2.12.3a5.23,5.23,0,0,1,.29,1.73,5.29,5.29,0,0,1-2.3,4.37H278.52a5.32,5.32,0,0,0-2.29,4.38,5.44,5.44,0,0,0,.28,1.72l.12.3a2.55,2.55,0,0,0,.13.29,1.74,1.74,0,0,0,.1.19,5.44,5.44,0,0,1,.4,2,5.31,5.31,0,0,1-10.62,0,5.25,5.25,0,0,1,.48-2.21h0a.37.37,0,0,0,.05-.11,2.53,2.53,0,0,0,.19-.48,4.94,4.94,0,0,0,.3-1.72,5.31,5.31,0,0,0-2.3-4.38H233.07a5.3,5.3,0,0,0-2.29,4.38,5.44,5.44,0,0,0,.28,1.72,2.68,2.68,0,0,0,.12.3,2.55,2.55,0,0,0,.13.29,1.63,1.63,0,0,0,.09.19,5.31,5.31,0,1,1-9.73-.18h0a1.17,1.17,0,0,0,.05-.11,3.43,3.43,0,0,0,.19-.48,5.18,5.18,0,0,0,.29-1.72,5.31,5.31,0,0,0-2.3-4.38H202.63V232.58a5.29,5.29,0,0,1,4.37-2.3,5.23,5.23,0,0,1,1.73.29,4,4,0,0,1,.48.19l.11.05a5.25,5.25,0,0,0,2.21.48,5.31,5.31,0,1,0-2-10.21,1.51,1.51,0,0,1-.18.09l-.29.14-.3.1a5,5,0,0,1-1.73.3,5.29,5.29,0,0,1-4.37-2.3V187.12a5.29,5.29,0,0,1,4.37-2.3,5,5,0,0,1,1.73.3,2.82,2.82,0,0,1,.48.19l.11.05a5.25,5.25,0,0,0,2.21.48,5.31,5.31,0,1,0-2-10.21l-.18.09-.29.13-.3.11a5.23,5.23,0,0,1-1.73.29,5.29,5.29,0,0,1-4.37-2.3V141.67a5.31,5.31,0,0,0-4.38-2.3,5.18,5.18,0,0,0-1.72.29l-.3.11-.29.13-.19.1a5.3,5.3,0,1,1,.18-9.74h0l.11,0c.15.07.31.13.48.19a5.18,5.18,0,0,0,1.72.29,5.31,5.31,0,0,0,4.38-2.3V96.22a5.29,5.29,0,0,1,4.37-2.3,5.23,5.23,0,0,1,1.73.29l.48.19.11,0h0a5.25,5.25,0,0,0,2.21.47,5.31,5.31,0,1,0-2-10.21l-.18.1L209,85l-.3.11a5.23,5.23,0,0,1-1.73.29,5.29,5.29,0,0,1-4.37-2.3V50.77a5.29,5.29,0,0,1,4.37-2.3,5.23,5.23,0,0,1,1.73.29,4,4,0,0,1,.48.19l.11,0a5.25,5.25,0,0,0,2.21.48,5.31,5.31,0,1,0-2-10.21,1.51,1.51,0,0,1-.18.09l-.29.14-.3.1a5,5,0,0,1-1.73.3,5.29,5.29,0,0,1-4.37-2.3v-16H219.9A5.3,5.3,0,0,1,222.2,26a5.19,5.19,0,0,1-.29,1.73,3.43,3.43,0,0,1-.19.48,1.17,1.17,0,0,1-.05.11h0a5.21,5.21,0,0,0-.48,2.2,5.31,5.31,0,1,0,10.61,0,5.24,5.24,0,0,0-.4-2c0-.07-.07-.13-.09-.19a2.55,2.55,0,0,1-.13-.29c-.05-.1-.08-.2-.12-.3a5.45,5.45,0,0,1-.28-1.73,5.29,5.29,0,0,1,2.29-4.37h15v16a5.29,5.29,0,0,0,4.37,2.3,5,5,0,0,0,1.73-.3l.3-.1.29-.14.19-.09a5.24,5.24,0,0,1,2-.4A5.31,5.31,0,1,1,254.77,49l-.11,0a3.43,3.43,0,0,0-.48-.19,5.19,5.19,0,0,0-1.73-.29,5.29,5.29,0,0,0-4.37,2.3V83.05a5.29,5.29,0,0,0,4.37,2.3,5.19,5.19,0,0,0,1.73-.29l.3-.11.29-.13.19-.1a5.24,5.24,0,0,1,2-.4,5.31,5.31,0,1,1-2.21,10.14h0l-.11,0c-.15-.07-.31-.13-.48-.19a5.19,5.19,0,0,0-1.73-.29,5.29,5.29,0,0,0-4.37,2.3V128.5a5.29,5.29,0,0,0,4.37,2.3,5.19,5.19,0,0,0,1.73-.29l.3-.11.29-.13.19-.1a5.24,5.24,0,0,1,2-.4,5.31,5.31,0,1,1-2.21,10.14h0l-.11-.05c-.15-.07-.31-.13-.48-.19a5.19,5.19,0,0,0-1.73-.29,5.29,5.29,0,0,0-4.37,2.3V174a5.29,5.29,0,0,0,4.37,2.3,5.19,5.19,0,0,0,1.73-.29l.3-.11.29-.13.19-.09a5.24,5.24,0,0,1,2-.4,5.31,5.31,0,1,1-2.21,10.13l-.11-.05a2.53,2.53,0,0,0-.48-.19,5,5,0,0,0-1.73-.3,5.29,5.29,0,0,0-4.37,2.3v16.29h17.28a5.29,5.29,0,0,0,2.3-4.37,5,5,0,0,0-.3-1.73c0-.1-.07-.2-.11-.3s-.08-.19-.13-.29l-.09-.19a5.24,5.24,0,0,1-.41-2,5.31,5.31,0,1,1,10.14,2.21.54.54,0,0,0-.05.11c-.07.15-.14.31-.2.48a5.45,5.45,0,0,0-.28,1.73,5.31,5.31,0,0,0,2.29,4.37h15V187.12a5.3,5.3,0,0,1,4.37-2.3,5,5,0,0,1,1.73.3,2.53,2.53,0,0,1,.48.19l.11.05h0a5.25,5.25,0,0,0,2.21.48,5.31,5.31,0,0,0,0-10.61,5.25,5.25,0,0,0-2,.4l-.19.09-.29.13a2.65,2.65,0,0,1-.3.11,5.19,5.19,0,0,1-1.73.29,5.3,5.3,0,0,1-4.37-2.3V141.67a5.29,5.29,0,0,0-4.37-2.3,5.19,5.19,0,0,0-1.73.29l-.3.11-.29.13-.19.1a5.2,5.2,0,0,1-2,.4,5.31,5.31,0,1,1,2.21-10.14h0l.11,0c.15.07.31.13.48.19a5.19,5.19,0,0,0,1.73.29,5.29,5.29,0,0,0,4.37-2.3V96.22a5.3,5.3,0,0,1,4.37-2.3,5.19,5.19,0,0,1,1.73.29c.17.06.33.12.48.19l.11,0h0a5.25,5.25,0,0,0,2.21.47,5.31,5.31,0,1,0-2-10.21l-.19.1-.29.13a2.65,2.65,0,0,1-.3.11,5.19,5.19,0,0,1-1.73.29,5.3,5.3,0,0,1-4.37-2.3V50.77a5.29,5.29,0,0,0-4.37-2.3,5.19,5.19,0,0,0-1.73.29l-.3.11-.29.13-.19.1a5.38,5.38,0,0,1-2,.39,5.31,5.31,0,1,1,2.21-10.13l.11,0a2.53,2.53,0,0,0,.48.19,5,5,0,0,0,1.73.3,5.29,5.29,0,0,0,4.37-2.3v-16h17.28a5.3,5.3,0,0,1,2.3,4.37,5.19,5.19,0,0,1-.29,1.73c-.06.17-.12.33-.19.48l-.05.11h0a5.21,5.21,0,0,0-.48,2.2,5.31,5.31,0,0,0,10.62,0,5.24,5.24,0,0,0-.4-2l-.1-.19a2.55,2.55,0,0,1-.13-.29c0-.1-.08-.2-.11-.3a5.19,5.19,0,0,1-.29-1.73A5.3,5.3,0,0,1,324,21.6h15v16a5.31,5.31,0,0,0,4.38,2.3,4.94,4.94,0,0,0,1.72-.3l.3-.1.29-.14.19-.09a5.25,5.25,0,0,1,2-.4A5.31,5.31,0,1,1,345.68,49h0l-.1,0a4.14,4.14,0,0,0-.49-.19,5.18,5.18,0,0,0-1.72-.29,5.31,5.31,0,0,0-4.38,2.3V83.05a5.31,5.31,0,0,0,4.38,2.3,5.18,5.18,0,0,0,1.72-.29,2.65,2.65,0,0,0,.3-.11l.29-.13.19-.1a5.25,5.25,0,0,1,2-.4,5.31,5.31,0,0,1,0,10.61,5.25,5.25,0,0,1-2.21-.47h0l-.1,0-.49-.19a5.18,5.18,0,0,0-1.72-.29,5.31,5.31,0,0,0-4.38,2.3Z"/><path class="cls-1" d="M166.08,129.77a5.25,5.25,0,0,0-2,.4l-.18.1-.3.13a2.65,2.65,0,0,1-.3.11,5.18,5.18,0,0,1-1.72.29,5.31,5.31,0,0,1-4.38-2.3V96.22a5.3,5.3,0,0,0-6.1-2l-.3.11-.29.13-.18.1a5.25,5.25,0,0,1-2,.4,5.31,5.31,0,0,1,0-10.62,5.25,5.25,0,0,1,2.21.48h0l.11.05.48.19a5.3,5.3,0,0,0,6.1-2V50.77a5.31,5.31,0,0,1,4.38-2.3,5.18,5.18,0,0,1,1.72.29,4.14,4.14,0,0,1,.49.19l.11,0a5.25,5.25,0,0,0,2.21.48,5.31,5.31,0,0,0,0-10.61,5.25,5.25,0,0,0-2,.4l-.18.09-.3.14-.3.1a4.94,4.94,0,0,1-1.72.3,5.31,5.31,0,0,1-4.38-2.3v-16h-15a5.3,5.3,0,0,0-2.3,4.37,5.19,5.19,0,0,0,.29,1.73c0,.1.07.2.11.3a2.55,2.55,0,0,0,.13.29l.1.19a5.24,5.24,0,0,1,.4,2,5.31,5.31,0,1,1-10.61,0,5.2,5.2,0,0,1,.47-2.2h0a1.17,1.17,0,0,0,0-.11c.07-.15.13-.31.19-.48A5.19,5.19,0,0,0,131.3,26,5.3,5.3,0,0,0,129,21.6H96.71A5.32,5.32,0,0,0,94.42,26a5.45,5.45,0,0,0,.28,1.73l.12.3a2.55,2.55,0,0,0,.13.29l.1.19a5.43,5.43,0,0,1,.4,2,5.31,5.31,0,0,1-10.62,0,5.21,5.21,0,0,1,.48-2.2h0a.37.37,0,0,0,0-.11,3.45,3.45,0,0,0,.2-.48A5.19,5.19,0,0,0,85.85,26a5.3,5.3,0,0,0-2.3-4.37H51.26A5.31,5.31,0,0,1,49,17.23a5.45,5.45,0,0,1,.28-1.73c.06-.17.13-.33.2-.48a.54.54,0,0,1,0-.11,5.32,5.32,0,1,0-9.73-.19l.09.19c0,.1.09.2.13.29s.08.2.11.3a5.19,5.19,0,0,1,.29,1.73,5.29,5.29,0,0,1-2.3,4.37H20.82v16a5.29,5.29,0,0,0,4.37,2.3,5,5,0,0,0,1.73-.3l.3-.1.29-.14a1.51,1.51,0,0,0,.18-.09A5.31,5.31,0,1,1,27.51,49l-.11,0a4,4,0,0,0-.48-.19,5.23,5.23,0,0,0-1.73-.29,5.29,5.29,0,0,0-4.37,2.3V83.05a5.29,5.29,0,0,0,4.37,2.3,5.19,5.19,0,0,0,1.73-.29l.3-.11.29-.13.19-.1a5.31,5.31,0,0,1,3.6-.16,4.66,4.66,0,0,1,.95.4,4.78,4.78,0,0,1,.84.57,3.22,3.22,0,0,1,.38.35,5.31,5.31,0,0,1-6,8.58h0l-.11,0c-.15-.07-.31-.13-.48-.19a5.19,5.19,0,0,0-1.73-.29,5.29,5.29,0,0,0-4.37,2.3V128.5a5.31,5.31,0,0,1-4.38,2.3,5.18,5.18,0,0,1-1.72-.29c-.17-.06-.33-.12-.48-.19l-.11,0h0a5.25,5.25,0,0,0-2.21-.47,5.31,5.31,0,1,0,2,10.21l.19-.1.29-.13.3-.11a5.18,5.18,0,0,1,1.72-.29,5.31,5.31,0,0,1,4.38,2.3V174a5.29,5.29,0,0,0,4.37,2.3,5.23,5.23,0,0,0,1.73-.29l.3-.11.29-.13.18-.09a5.31,5.31,0,1,1-.18,9.73l-.11-.05a2.82,2.82,0,0,0-.48-.19,5,5,0,0,0-1.73-.3,5.29,5.29,0,0,0-4.37,2.3v32.29a5.31,5.31,0,0,1-4.38,2.3,4.94,4.94,0,0,1-1.72-.3,2.53,2.53,0,0,1-.48-.19l-.11-.05h0a5.25,5.25,0,0,0-2.21-.48,5.31,5.31,0,0,0,0,10.61,5.25,5.25,0,0,0,2-.4l.19-.09.29-.13a2.65,2.65,0,0,1,.3-.11,5.18,5.18,0,0,1,1.72-.29,5.31,5.31,0,0,1,4.38,2.3v16.28H38.09a5.29,5.29,0,0,0,2.3-4.37,5.23,5.23,0,0,0-.29-1.73c0-.1-.07-.2-.11-.3s-.08-.19-.13-.29l-.09-.18a5.31,5.31,0,1,1,9.73.18.54.54,0,0,0,0,.11c-.07.16-.14.31-.2.48a5.5,5.5,0,0,0-.28,1.73,5.31,5.31,0,0,0,2.29,4.37h15V232.58a5.29,5.29,0,0,1,4.37-2.3,5.19,5.19,0,0,1,1.73.29,3.43,3.43,0,0,1,.48.19l.11.05h0a5.21,5.21,0,0,0,2.2.48,5.31,5.31,0,1,0,0-10.61,5.24,5.24,0,0,0-2,.4l-.19.09-.29.14-.3.1a5,5,0,0,1-1.73.3,5.29,5.29,0,0,1-4.37-2.3V187.12a5.29,5.29,0,0,1,4.37-2.3,5,5,0,0,1,1.73.3,2.53,2.53,0,0,1,.48.19l.11.05h0a5.21,5.21,0,0,0,2.2.48,5.31,5.31,0,1,0,0-10.61,5.24,5.24,0,0,0-2,.4l-.19.09-.29.13-.3.11a5.19,5.19,0,0,1-1.73.29,5.29,5.29,0,0,1-4.37-2.3V158H83.55a5.29,5.29,0,0,1,2.3,4.37,5.19,5.19,0,0,1-.29,1.73,3.45,3.45,0,0,1-.2.48.54.54,0,0,1,0,.11,5.31,5.31,0,1,0,10.14,2.21,5.48,5.48,0,0,0-.4-2,1.62,1.62,0,0,1-.1-.18c0-.1-.09-.2-.13-.29l-.12-.3a5.45,5.45,0,0,1-.28-1.73A5.31,5.31,0,0,1,96.71,158H129a5.29,5.29,0,0,1,2.3,4.37,5.19,5.19,0,0,1-.29,1.73c-.06.17-.12.33-.19.48l0,.11h0a5.31,5.31,0,1,0,9.74.18,1.62,1.62,0,0,1-.1-.18c-.05-.1-.09-.2-.13-.29s-.08-.2-.11-.3a5.19,5.19,0,0,1-.29-1.73,5.29,5.29,0,0,1,2.3-4.37h15V141.67a5.31,5.31,0,0,1,4.38-2.3,5.18,5.18,0,0,1,1.72.29l.49.19.11.05h0a5.25,5.25,0,0,0,2.21.48,5.31,5.31,0,0,0,0-10.62ZM111.72,83.05a5.29,5.29,0,0,1-4.37,2.3,5.23,5.23,0,0,1-1.73-.29l-.48-.19-.11-.05h0a5.31,5.31,0,1,0-.18,9.74l.18-.1.29-.13.3-.11a5.23,5.23,0,0,1,1.73-.29,5.29,5.29,0,0,1,4.37,2.3v16.29h-15a5.29,5.29,0,0,0-2.29,4.37,5.55,5.55,0,0,0,.28,1.73l.12.3c0,.09.08.19.13.29a1.62,1.62,0,0,0,.1.18,5.48,5.48,0,0,1,.4,2,5.31,5.31,0,0,1-10.62,0,5.25,5.25,0,0,1,.48-2.21l0-.11a4.89,4.89,0,0,0,.2-.48,5.3,5.3,0,0,0-2-6.1H66.27V96.22a5.29,5.29,0,0,1,4.37-2.3,5.19,5.19,0,0,1,1.73.29c.17.06.33.12.48.19l.11,0h0a5.2,5.2,0,0,0,2.2.47,5.31,5.31,0,1,0,0-10.61,5.24,5.24,0,0,0-2,.4l-.19.1-.29.13-.3.11a5.19,5.19,0,0,1-1.73.29,5.29,5.29,0,0,1-4.37-2.3v-16h45.45Z"/></svg>