<svg id="Слой_1" data-name="Слой 1" xmlns="http://www.w3.org/2000/svg" viewBox="0 0 118.71 158.77"><defs><style>.cls-1{fill:#672c83;}.cls-2{fill:#3aa7df;}</style></defs><path class="cls-1" d="M76.52,67.47V142a16.73,16.73,0,0,1-26.71,13.43,17.07,17.07,0,0,1-2.07-1.82A16.67,16.67,0,0,1,43.06,142V67.47a16.73,16.73,0,1,1,33.46,0Z"/><path class="cls-2" d="M118.91,76.93a34.79,34.79,0,0,1-42.39,32.55,34.23,34.23,0,0,1-8.19-3,19.37,19.37,0,0,0-17.72,0,34.38,34.38,0,0,1-7.55,2.82,35.34,35.34,0,0,1-10,.94A34.78,34.78,0,0,1,19,44.56a10.52,10.52,0,0,0,5.76-9.44V35a35,35,0,0,1,69.92-3.4l0,.33a19,19,0,0,0,8.39,14.4A34.78,34.78,0,0,1,118.91,76.93Z"/></svg>