<svg id="Слой_1" data-name="Слой 1" xmlns="http://www.w3.org/2000/svg" viewBox="0 0 176.83 83.29"><defs><style>.cls-1{fill:#f7b231;}.cls-2{fill:#672c83;}</style></defs><rect class="cls-1" x="41.17" y="22.15" width="104.62" height="38.84" rx="19.42"/><path class="cls-2" d="M45.05,0h-1a19.38,19.38,0,0,0-15.5,7.73A8.16,8.16,0,0,1,22,11H19.42A19.43,19.43,0,0,0,0,30.44V53A19.42,19.42,0,0,0,19.42,72.42H22a8.16,8.16,0,0,1,6.57,3.29,19.36,19.36,0,0,0,15.5,7.74h1A19.42,19.42,0,0,0,64.47,64V19.42A19.42,19.42,0,0,0,45.05,0Z"/><path class="cls-2" d="M157.41,10.86h-2.56a8.16,8.16,0,0,1-6.58-3.28A19.35,19.35,0,0,0,132.78-.16h-1a19.43,19.43,0,0,0-19.42,19.42V63.87a19.43,19.43,0,0,0,19.42,19.42h1a19.37,19.37,0,0,0,15.49-7.73,8.17,8.17,0,0,1,6.58-3.29h2.56a19.42,19.42,0,0,0,19.42-19.42V30.29A19.42,19.42,0,0,0,157.41,10.86Z"/></svg>